<svg width="72" height="72" fill="none" xmlns="http://www.w3.org/2000/svg"><path d="M11.826 52.02A29 29 0 0 1 25.417 9" stroke="#6E49CB" stroke-width="4" stroke-linecap="round"/><path d="M56 65h12" stroke="#6E49CB" stroke-width="4" stroke-linecap="round" stroke-linejoin="round"/><path d="m64 60 5 5-5 5M38 12l-5-5 5-5" stroke="#6E49CB" stroke-width="4" stroke-linecap="round"/><path d="M36 7a29 29 0 0 1 0 58" stroke="#6E49CB" stroke-width="4" stroke-linecap="round"/><path d="M12 65h24" stroke="#6E49CB" stroke-width="4" stroke-linecap="round" stroke-linejoin="round"/><path fill="#FF9769" stroke="#6E49CB" stroke-width="4" stroke-linecap="round" stroke-linejoin="round" d="M2 60h10v10H2z"/><circle cx="36" cy="36" r="12.4" fill="#4BEACC" stroke="#6E49CB" stroke-width="4" stroke-linecap="round"/><path d="M31.908 35.66a1 1 0 0 0-1.416 1.413l1.416-1.412Zm2.115 3.54-.708.706a1 1 0 0 0 1.417 0l-.709-.706Zm7.485-6.094a1 1 0 0 0-1.416-1.412l1.416 1.412Zm-11.016 3.967 2.823 2.833 1.417-1.412-2.824-2.833-1.416 1.412Zm4.24 2.833 6.776-6.8-1.416-1.412-6.777 6.8 1.417 1.412Z" fill="#6E49CB"/></svg>