<svg width="72" height="72" fill="none" xmlns="http://www.w3.org/2000/svg"><path d="M7.792 29.417c0 8.608 7 15.587 15.634 15.587h40.065c2.006 0 3.912-.43 5.629-1.204-2.33 4.203-6.823 7.2-11.981 7.2H17.075C8.44 51 1.44 44.022 1.44 35.413c0-6.093 3.507-11.52 8.619-14.084a15.479 15.479 0 0 0-2.267 8.088Z" fill="#AC7FFF" fill-opacity=".24"/><path d="M25 50.999h31.705a12.96 12.96 0 0 0 5.274-1.063 13.105 13.105 0 0 0 4.418-3.1 13.337 13.337 0 0 0 2.823-4.64 13.489 13.489 0 0 0-.694-10.65 13.266 13.266 0 0 0-3.399-4.222 13.038 13.038 0 0 0-4.782-2.484 12.921 12.921 0 0 0-5.363-.328 17.704 17.704 0 0 0-4.725-11.036c-2.806-3-6.564-4.9-10.614-5.365a17.117 17.117 0 0 0-11.525 2.823 17.559 17.559 0 0 0-7.035 9.686 15.212 15.212 0 0 0-3.87-.502c-1.998 0-3.977.4-5.822 1.176a15.198 15.198 0 0 0-4.935 3.347 15.457 15.457 0 0 0-3.298 5.009 15.641 15.641 0 0 0 0 11.817 15.458 15.458 0 0 0 3.298 5.01 15.2 15.2 0 0 0 4.935 3.346c1.742.733 3.726 1.135 5.609 1.177" stroke="#6E49CB" stroke-width="4" stroke-linecap="round"/><circle cx="36" cy="51" r="12" fill="#4BEACC" stroke="#6E49CB" stroke-width="4" stroke-linecap="round"/><path d="M32.042 50.65a1 1 0 0 0-1.417 1.412l1.417-1.411Zm2.036 3.461-.708.706a1 1 0 0 0 1.417 0l-.709-.706Zm7.297-5.905a1 1 0 1 0-1.417-1.412l1.417 1.412Zm-10.75 3.856 2.745 2.755 1.417-1.412-2.745-2.754-1.417 1.411Zm4.162 2.755 6.588-6.611-1.417-1.412-6.588 6.611 1.417 1.412Z" fill="#6E49CB"/></svg>