<svg width="72" height="72" viewBox="0 0 72 72" fill="none" xmlns="http://www.w3.org/2000/svg">
    <path
        d="M7.7911 35.417C7.7911 44.0254 14.7911 51.0039 23.4259 51.0039H63.4902C65.4968 51.0039 67.4026 50.5732 69.1194 49.7994C66.7886 54.0027 62.297 57 57.1385 57H17.0743C8.43941 57 1.43945 50.0215 1.43945 41.4131C1.43945 35.3198 4.94651 29.8922 10.058 27.329C8.61956 29.6869 7.7911 32.4555 7.7911 35.417Z"
        fill="#AC7FFF" fill-opacity="0.24" />
    <path
        d="M25 56.9987H56.7053C58.515 57.0249 60.3105 56.6489 61.9786 55.9361C63.6466 55.2233 65.1512 54.1675 66.3974 52.8354C67.6437 51.5033 68.6047 49.9237 69.2198 48.196C69.8349 46.4684 70.0908 44.6301 69.9715 42.7971C69.8521 40.9642 69.3601 39.1761 68.5263 37.5456C67.6925 35.9152 66.5351 34.4776 65.127 33.3236C63.7188 32.1695 62.0905 31.3239 60.3445 30.8401C58.5985 30.3563 56.7727 30.2447 54.9821 30.5124C54.7354 26.3838 53.0621 22.4757 50.2565 19.4758C47.4509 16.4759 43.6928 14.5764 39.6434 14.1114C35.5941 13.6465 31.5129 14.6459 28.1179 16.9339C24.7229 19.2218 22.2317 22.6517 21.0826 26.6201C19.8187 26.2873 18.5182 26.1186 17.2124 26.1183C15.2147 26.1183 13.2365 26.5177 11.3909 27.2937C9.54522 28.0696 7.86821 29.2069 6.45561 30.6407C5.04301 32.0744 3.92247 33.7765 3.15797 35.6498C2.39348 37.5231 2 39.5309 2 41.5585C2 43.5862 2.39348 45.5939 3.15797 47.4672C3.92247 49.3405 5.04301 51.0426 6.45561 52.4764C7.86821 53.9101 9.54522 55.0475 11.3909 55.8234C13.1326 56.5556 15.1172 56.9576 17 57"
        stroke="#6E49CB" stroke-width="4" stroke-linecap="round" />
</svg>
