<svg width="44" height="44" fill="none" xmlns="http://www.w3.org/2000/svg"><g clip-path="url(#cog-check__a)"><path d="m42.6 18.726-3.559-1.293a3.278 3.278 0 0 1-1.839-4.44l1.597-3.432a21.283 21.283 0 0 0-4.629-4.629l-3.427 1.602a3.287 3.287 0 0 1-4.444-1.84l-1.294-3.559a21.186 21.186 0 0 0-6.525 0l-1.32 3.56a3.287 3.287 0 0 1-4.444 1.839L9.288 4.932a21.283 21.283 0 0 0-4.62 4.63l1.602 3.431a3.282 3.282 0 0 1-1.84 4.44L.88 18.726a21.349 21.349 0 0 0 0 6.548l3.564 1.293a3.257 3.257 0 0 1 1.84 4.44l-1.602 3.432a21.282 21.282 0 0 0 4.615 4.629l3.428-1.602a3.287 3.287 0 0 1 4.435 1.84l1.32 3.559c2.168.339 4.375.339 6.543 0l1.293-3.56a3.285 3.285 0 0 1 4.444-1.839l3.428 1.602a21.284 21.284 0 0 0 4.611-4.63l-1.597-3.431a3.282 3.282 0 0 1 1.84-4.44l3.559-1.293c.339-2.17.339-4.378 0-6.548Zm-12.68.788-8.466 8.444a1.905 1.905 0 0 1-2.688 0l-4.664-4.669a1.188 1.188 0 0 1 0-1.676l1.998-1.998a1.183 1.183 0 0 1 1.68 0l2.332 2.332 6.108-6.107a1.193 1.193 0 0 1 1.68 0l2.02 1.993a1.193 1.193 0 0 1 0 1.681Z" fill="#52CDB7"/><path d="M26.114 41.435a.88.88 0 0 1-.827-1.18l.44-1.249a4.16 4.16 0 0 1 5.64-2.336l2.953 1.377a20.213 20.213 0 0 0 3.727-3.727l-1.377-2.952a4.158 4.158 0 0 1 2.336-5.628l3.08-1.113a20.19 20.19 0 0 0 0-5.254l-3.08-1.113a4.158 4.158 0 0 1-2.336-5.64l1.377-2.94a20.098 20.098 0 0 0-3.727-3.727L31.372 7.33a4.158 4.158 0 0 1-5.632-2.336l-1.1-3.062a20.403 20.403 0 0 0-5.764.07.88.88 0 0 1-.282-1.738 22.097 22.097 0 0 1 6.812 0 .88.88 0 0 1 .695.568L27.394 4.4a2.408 2.408 0 0 0 3.243 1.32l3.428-1.584a.88.88 0 0 1 .88.088 21.998 21.998 0 0 1 4.84 4.84.88.88 0 0 1 .088.88l-1.593 3.419a2.408 2.408 0 0 0 1.32 3.243l3.564 1.293a.88.88 0 0 1 .568.695 22.098 22.098 0 0 1 0 6.812.88.88 0 0 1-.568.695L39.6 27.394a2.408 2.408 0 0 0-1.32 3.243l1.602 3.428a.88.88 0 0 1-.088.88 21.997 21.997 0 0 1-4.84 4.84.881.881 0 0 1-.88.088l-3.437-1.593a2.406 2.406 0 0 0-3.243 1.32l-.44 1.25a.88.88 0 0 1-.84.585Z" fill="#380D75"/><path d="M22 44c-1.14 0-2.279-.088-3.406-.264a.88.88 0 0 1-.695-.568L16.606 39.6a2.408 2.408 0 0 0-3.243-1.32l-3.428 1.584a.88.88 0 0 1-.88-.088 21.998 21.998 0 0 1-4.84-4.84.88.88 0 0 1-.088-.88l1.593-3.419a2.385 2.385 0 0 0-1.32-3.243L.836 26.101a.88.88 0 0 1-.572-.695 22.097 22.097 0 0 1 0-6.812.88.88 0 0 1 .568-.695L4.4 16.606a2.408 2.408 0 0 0 1.32-3.243L4.136 9.935a.88.88 0 0 1 .088-.88 22 22 0 0 1 4.84-4.84.88.88 0 0 1 .88-.088l3.419 1.593a2.407 2.407 0 0 0 3.243-1.32l.378-1.043a.88.88 0 1 1 1.654.603l-.378 1.043a4.16 4.16 0 0 1-5.64 2.336L9.68 5.953A20.324 20.324 0 0 0 5.953 9.68l1.377 2.952a4.158 4.158 0 0 1-2.336 5.628l-3.062 1.1a20.191 20.191 0 0 0 0 5.28l3.08 1.113a4.135 4.135 0 0 1 2.336 5.641L5.953 34.32a20.213 20.213 0 0 0 3.727 3.727l2.952-1.377a4.158 4.158 0 0 1 5.628 2.336l1.113 3.08c1.915.25 3.856.226 5.764-.07a.89.89 0 1 1 .269 1.76A22.11 22.11 0 0 1 22 44Z" fill="#380D75"/><path d="M20.112 29.392a2.776 2.776 0 0 1-1.966-.792l-4.669-4.686a2.072 2.072 0 0 1 0-2.926l1.998-1.998a2.068 2.068 0 0 1 2.921 0l1.712 1.712 5.491-5.487a2.06 2.06 0 0 1 2.922 0l2.002 1.998a2.068 2.068 0 0 1 0 2.921L22.079 28.6a2.78 2.78 0 0 1-1.967.792Zm-3.172-9.24a.304.304 0 0 0-.22.088l-1.998 1.998a.313.313 0 0 0 0 .44l4.669 4.664a1.016 1.016 0 0 0 1.443 0l8.444-8.453a.313.313 0 0 0 0-.44l-1.998-1.993a.313.313 0 0 0-.44 0l-6.107 6.112a.906.906 0 0 1-1.245 0L17.16 20.24a.294.294 0 0 0-.22-.092v.004Z" fill="#380D75"/></g><defs><clipPath id="cog-check__a"><path fill="#fff" d="M0 0h44v44H0z"/></clipPath></defs></svg>