<svg width="44" height="44" fill="none" xmlns="http://www.w3.org/2000/svg"><g clip-path="url(#cog-code__a)"><path d="m42.86 18.718-3.554-1.294a3.276 3.276 0 0 1-1.84-4.44l1.597-3.427a21.338 21.338 0 0 0-4.624-4.625L31.011 6.53a3.283 3.283 0 0 1-4.44-1.84l-1.293-3.56a21.432 21.432 0 0 0-6.538 0l-1.294 3.56a3.278 3.278 0 0 1-4.44 1.84L9.584 4.932a21.265 21.265 0 0 0-4.628 4.625l1.601 3.427a3.283 3.283 0 0 1-1.839 4.44l-3.56 1.294a21.155 21.155 0 0 0 0 6.538l3.56 1.294a3.255 3.255 0 0 1 1.84 4.44l-1.602 3.422a21.186 21.186 0 0 0 4.628 4.63l3.424-1.602a3.285 3.285 0 0 1 4.44 1.839l1.293 3.56c2.166.338 4.372.338 6.538 0l1.294-3.56a3.29 3.29 0 0 1 4.44-1.84l3.427 1.602a21.261 21.261 0 0 0 4.624-4.629l-1.597-3.423a3.284 3.284 0 0 1 1.84-4.44l3.555-1.293a21.157 21.157 0 0 0 0-6.538ZM22 33.792a11.81 11.81 0 1 1 .018-23.618A11.81 11.81 0 0 1 22 33.792Z" fill="#FCA121"/><path d="M22 44c-1.14 0-2.278-.088-3.405-.264a.88.88 0 0 1-.69-.568L16.601 39.6a2.402 2.402 0 0 0-3.239-1.32l-3.427 1.602a.88.88 0 0 1-.88-.088 22.14 22.14 0 0 1-4.84-4.84.88.88 0 0 1-.088-.88l1.593-3.428a2.376 2.376 0 0 0-1.32-3.243L.836 26.11a.88.88 0 0 1-.567-.691 22.097 22.097 0 0 1 0-6.811.88.88 0 0 1 .567-.691l3.565-1.294a2.402 2.402 0 0 0 1.32-3.238l-.44-1.003a.88.88 0 1 1 1.606-.713l.44.985a4.158 4.158 0 0 1-2.341 5.624l-3.08 1.113a20.125 20.125 0 0 0 .03 5.249l3.08 1.113a4.14 4.14 0 0 1 2.332 5.641l-1.39 2.926a20.007 20.007 0 0 0 3.723 3.727l2.948-1.373a4.157 4.157 0 0 1 5.64 2.332l1.114 3.08a20.1 20.1 0 0 0 5.244 0l1.114-3.08a4.157 4.157 0 0 1 5.636-2.332l2.944 1.373a20.18 20.18 0 0 0 4.021-4.123.88.88 0 1 1 1.421 1.038 22.044 22.044 0 0 1-4.818 4.84.881.881 0 0 1-.88.088l-3.445-1.61a2.402 2.402 0 0 0-3.238 1.32l-1.294 3.56a.88.88 0 0 1-.69.567c-1.124.178-2.26.27-3.398.273Z" fill="#380D75"/><path d="M37.977 32.965a.88.88 0 0 1-.788-.489l-.532-1.069a4.163 4.163 0 0 1 2.327-5.658l3.08-1.113a20.515 20.515 0 0 0 0-5.245l-3.08-1.113a4.131 4.131 0 0 1-2.336-5.637l1.377-2.961a20.325 20.325 0 0 0-3.705-3.7l-2.948 1.377a4.132 4.132 0 0 1-5.636-2.337l-1.113-3.08a20.513 20.513 0 0 0-5.263.018l-1.113 3.08a4.137 4.137 0 0 1-5.64 2.336L9.68 5.98a20.315 20.315 0 0 0-4.035 4.14.884.884 0 0 1-1.42-1.052A22.194 22.194 0 0 1 8.834 4.4a1.29 1.29 0 0 1 1.32-.132L13.36 5.76a2.375 2.375 0 0 0 3.24-1.32L17.895.88a.88.88 0 0 1 .69-.59 22.097 22.097 0 0 1 6.812 0 .88.88 0 0 1 .69.59l1.294 3.52a2.37 2.37 0 0 0 3.239 1.342l3.427-1.597a.88.88 0 0 1 .88.088 21.947 21.947 0 0 1 4.818 4.84.88.88 0 0 1 .088.88l-1.597 3.427a2.376 2.376 0 0 0 1.32 3.239l3.56 1.293a.88.88 0 0 1 .572.691 22.098 22.098 0 0 1 0 6.811.88.88 0 0 1-.572.691L39.6 27.403a2.393 2.393 0 0 0-1.32 3.239l.484 1.038a.88.88 0 0 1-.396 1.184.88.88 0 0 1-.391.1Z" fill="#380D75"/><path d="M22 34.703A12.69 12.69 0 1 1 34.676 22 12.708 12.708 0 0 1 22 34.703Zm0-23.615A10.93 10.93 0 1 0 32.916 22 10.939 10.939 0 0 0 22 11.088Z" fill="#380D75"/><path d="M17.16 25.344a.879.879 0 0 1-.624-.264l-2.456-2.473a.88.88 0 0 1 0-1.245l2.478-2.473a.88.88 0 0 1 1.245 1.241L15.928 22l1.853 1.852a.88.88 0 0 1-.62 1.492Zm9.702 0a.88.88 0 0 1-.625-1.505L28.094 22l-1.857-1.857a.88.88 0 0 1 1.245-1.24l2.477 2.472a.88.88 0 0 1 0 1.245l-2.477 2.46a.881.881 0 0 1-.62.264Zm-6.147 1.364a.88.88 0 0 1-.832-1.162l2.588-7.63a.88.88 0 0 1 1.668.564l-2.579 7.63a.88.88 0 0 1-.845.598Z" fill="#341472"/></g><defs><clipPath id="cog-code__a"><path fill="#fff" d="M0 0h44v44H0z"/></clipPath></defs></svg>