<svg width="44" height="44" fill="none" xmlns="http://www.w3.org/2000/svg"><g clip-path="url(#collaboration__a)"><path d="M11.343 13.394a3.106 3.106 0 1 0 0-6.213 3.106 3.106 0 0 0 0 6.213Zm0 8.725a10.79 10.79 0 0 0 6.846-2.438 9.087 9.087 0 0 0-13.688 0 10.785 10.785 0 0 0 6.842 2.438Z" fill="#B37DE6"/><path d="M32.666 34.338a3.106 3.106 0 1 0 0-6.213 3.106 3.106 0 0 0 0 6.213Zm0 8.725a10.785 10.785 0 0 0 6.842-2.438 9.096 9.096 0 0 0-13.689 0 10.798 10.798 0 0 0 6.847 2.438Z" fill="#FCA121"/><path d="M35.763 16.227a.88.88 0 0 1-.88-.88V9.051H28.6a.88.88 0 1 1 0-1.76h7.163a.88.88 0 0 1 .88.88v7.176a.88.88 0 0 1-.88.88Zm-19.958 20.46H8.122a.88.88 0 0 1-.88-.88V28.6a.88.88 0 1 1 1.76 0v6.327h6.803a.88.88 0 1 1 0 1.76ZM11.334 22.73a11.344 11.344 0 0 1-7.449-2.794.972.972 0 0 1 0-1.452 11.325 11.325 0 0 1 14.96.066.88.88 0 0 1 .3.66.881.881 0 0 1-.3.656 11.295 11.295 0 0 1-7.51 2.864Zm-5.526-3.52a9.561 9.561 0 0 0 11.057 0 9.562 9.562 0 0 0-11.057 0Zm5.527-4.69a4.22 4.22 0 1 1 0-8.44 4.22 4.22 0 0 1 0 8.44Zm0-6.68a2.46 2.46 0 1 0 2.46 2.46 2.462 2.462 0 0 0-2.46-2.472v.013Z" fill="#380D75"/><path d="M2.363 17.635a.88.88 0 0 1-.757-.44 11.334 11.334 0 1 1 19.461 0 .882.882 0 0 1-1.514-.906 9.574 9.574 0 1 0-16.438 0 .88.88 0 0 1-.752 1.32v.026Zm30.303 26.273a11.313 11.313 0 0 1-7.524-2.86.88.88 0 0 1 0-1.32 11.325 11.325 0 0 1 15.048 0 .88.88 0 0 1 0 1.32 11.322 11.322 0 0 1-7.524 2.86Zm-5.531-3.52a9.562 9.562 0 0 0 11.057 0 9.583 9.583 0 0 0-11.057 0Zm5.531-4.704a4.22 4.22 0 1 1 0-8.44 4.22 4.22 0 0 1 0 8.44Zm0-6.675a2.46 2.46 0 1 0 0 4.92 2.46 2.46 0 0 0 0-4.92Z" fill="#380D75"/><path d="M23.69 38.817a.88.88 0 0 1-.758-.44 11.339 11.339 0 1 1 19.462 0 .88.88 0 1 1-1.51-.88 9.574 9.574 0 1 0-16.442 0 .88.88 0 0 1-.3 1.205.88.88 0 0 1-.453.115Z" fill="#380D75"/></g><defs><clipPath id="collaboration__a"><path fill="#fff" d="M0 0h44v44H0z"/></clipPath></defs></svg>