<svg viewBox="0 0 252 160" xmlns="http://www.w3.org/2000/svg">
  <g opacity="0.5">
    <g opacity="0.5">
      <path opacity="0.5" d="M193.639 61.0539H113.159C112.892 61.0539 112.659 60.8872 112.559 60.654L110.427 55.7883C110.094 54.9885 109.294 54.4552 108.395 54.4552H87.742C86.8759 54.4552 86.0764 54.9885 85.71 55.7883L83.6114 60.654C83.5114 60.8872 83.2783 61.0539 83.0118 61.0539H57.1955C56.8291 61.0539 56.5293 60.7539 56.5293 60.3874C56.5293 60.0208 56.8291 59.7208 57.1955 59.7208H82.5787L84.5108 55.2551C85.0771 53.9554 86.3429 53.1222 87.742 53.1222H108.395C109.794 53.1222 111.06 53.9554 111.626 55.2551L113.558 59.7208H193.605C193.972 59.7208 194.272 60.0208 194.272 60.3874C194.272 60.7539 194.005 61.0539 193.639 61.0539Z" fill="#AFAAE5"/>
    </g>
    <g opacity="0.5">
      <path opacity="0.5" d="M138.375 61.0539C138.109 61.0539 137.876 60.9206 137.776 60.654L135.644 55.7883C135.311 54.9885 134.511 54.4552 133.612 54.4552H118.688C117.822 54.4552 117.023 54.9885 116.656 55.7883L114.524 60.654C114.391 60.9872 113.991 61.1539 113.658 60.9872C113.325 60.8539 113.159 60.454 113.325 60.1207L115.457 55.2551C116.023 53.9554 117.289 53.1222 118.688 53.1222H133.612C135.011 53.1222 136.277 53.9554 136.843 55.2551L138.975 60.1207C139.108 60.454 138.975 60.8539 138.642 60.9872C138.542 61.0539 138.442 61.0539 138.375 61.0539Z" fill="#AFAAE5"/>
    </g>
    <g opacity="0.5">
      <path opacity="0.5" d="M138.375 61.0539C138.275 61.0539 138.209 61.0206 138.109 60.9872C137.776 60.8539 137.609 60.454 137.776 60.1207L139.907 55.2551C140.474 53.9554 141.74 53.1222 143.139 53.1222H158.062C159.461 53.1222 160.727 53.9554 161.293 55.2551L163.425 60.1207C163.558 60.454 163.425 60.8539 163.092 60.9872C162.759 61.1205 162.359 60.9872 162.226 60.654L160.094 55.7883C159.761 54.9885 158.962 54.4552 158.062 54.4552H143.139C142.273 54.4552 141.473 54.9885 141.107 55.7883L138.975 60.654C138.875 60.9206 138.608 61.0539 138.375 61.0539Z" fill="#AFAAE5"/>
    </g>
    <g opacity="0.5">
      <path opacity="0.5" d="M62.7587 55.7883C61.293 55.7883 60.0938 54.5886 60.0938 53.1222C60.0938 51.6559 61.293 50.4561 62.7587 50.4561C64.2244 50.4561 65.4236 51.6559 65.4236 53.1222C65.4236 54.6219 64.2244 55.7883 62.7587 55.7883ZM62.7587 51.8225C62.0258 51.8225 61.4262 52.4224 61.4262 53.1556C61.4262 53.8887 62.0258 54.4886 62.7587 54.4886C63.4915 54.4886 64.0911 53.8887 64.0911 53.1556C64.0911 52.4224 63.4915 51.8225 62.7587 51.8225Z" fill="#AFAAE5"/>
    </g>
    <g opacity="0.5">
      <path opacity="0.5" d="M70.42 55.7883C68.9543 55.7883 67.7551 54.5886 67.7551 53.1222C67.7551 51.6559 68.9543 50.4561 70.42 50.4561C71.8857 50.4561 73.0849 51.6559 73.0849 53.1222C73.0849 54.6219 71.8857 55.7883 70.42 55.7883ZM70.42 51.8225C69.6872 51.8225 69.0876 52.4224 69.0876 53.1556C69.0876 53.8887 69.6872 54.4886 70.42 54.4886C71.1529 54.4886 71.7525 53.8887 71.7525 53.1556C71.7525 52.4224 71.1529 51.8225 70.42 51.8225Z" fill="#AFAAE5"/>
    </g>
    <g opacity="0.5">
      <path opacity="0.5" d="M78.0817 55.7883C76.616 55.7883 75.4167 54.5886 75.4167 53.1222C75.4167 51.6559 76.616 50.4561 78.0817 50.4561C79.5474 50.4561 80.7466 51.6559 80.7466 53.1222C80.7132 54.6219 79.514 55.7883 78.0817 55.7883ZM78.0817 51.8225C77.3488 51.8225 76.7492 52.4224 76.7492 53.1556C76.7492 53.8887 77.3488 54.4886 78.0817 54.4886C78.8145 54.4886 79.4141 53.8887 79.4141 53.1556C79.4141 52.4224 78.7812 51.8225 78.0817 51.8225Z" fill="#AFAAE5"/>
    </g>
    <g opacity="0.5">
      <path opacity="0.5" d="M188.442 73.7846H88.1417C86.0431 73.7846 84.3442 72.0849 84.3442 69.9854C84.3442 67.8858 86.0431 66.1862 88.1417 66.1862H188.442C190.541 66.1862 192.24 67.8858 192.24 69.9854C192.273 72.0849 190.541 73.7846 188.442 73.7846ZM88.1417 67.5192C86.776 67.5192 85.6767 68.619 85.6767 69.9854C85.6767 71.3517 86.776 72.4515 88.1417 72.4515H188.442C189.808 72.4515 190.907 71.3517 190.907 69.9854C190.907 68.619 189.808 67.5192 188.442 67.5192H88.1417Z" fill="#AFAAE5"/>
    </g>
    <g opacity="0.5">
      <path opacity="0.5" d="M78.0485 70.6519H72.3523C71.9858 70.6519 71.686 70.352 71.686 69.9854C71.686 69.6188 71.9858 69.3188 72.3523 69.3188H78.0485C78.4149 69.3188 78.7147 69.6188 78.7147 69.9854C78.7147 70.352 78.4149 70.6519 78.0485 70.6519Z" fill="#AFAAE5"/>
    </g>
    <g opacity="0.5">
      <path opacity="0.5" d="M75.7165 72.9848C75.55 72.9848 75.3834 72.9181 75.2502 72.7848C74.9837 72.5182 74.9837 72.1183 75.2502 71.8517L77.1156 69.9854L75.2502 68.1191C74.9837 67.8525 74.9837 67.4526 75.2502 67.186C75.5166 66.9194 75.9164 66.9194 76.1829 67.186L78.5147 69.5188C78.7811 69.7854 78.7811 70.1854 78.5147 70.452L76.1829 72.7848C76.0496 72.9181 75.8831 72.9848 75.7165 72.9848Z" fill="#AFAAE5"/>
    </g>
    <g opacity="0.5">
      <path opacity="0.5" d="M66.5229 70.6519H60.8266C60.4602 70.6519 60.1604 70.352 60.1604 69.9854C60.1604 69.6188 60.4602 69.3188 60.8266 69.3188H66.5229C66.8893 69.3188 67.1891 69.6188 67.1891 69.9854C67.1891 70.352 66.8893 70.6519 66.5229 70.6519Z" fill="#AFAAE5"/>
    </g>
    <g opacity="0.5">
      <path opacity="0.5" d="M63.1584 72.9848C62.9919 72.9848 62.8253 72.9181 62.6921 72.7848L60.3603 70.452C60.227 70.3187 60.1604 70.152 60.1604 69.9854C60.1604 69.8188 60.227 69.6521 60.3603 69.5188L62.6921 67.186C62.9585 66.9194 63.3583 66.9194 63.6248 67.186C63.8913 67.4526 63.8913 67.8525 63.6248 68.1191L61.7593 69.9854L63.6248 71.8517C63.8913 72.1183 63.8913 72.5182 63.6248 72.7848C63.4915 72.9181 63.325 72.9848 63.1584 72.9848Z" fill="#AFAAE5"/>
    </g>
    <g opacity="0.5">
      <path opacity="0.5" d="M89.8407 60.4207H88.7414C88.0419 60.4207 87.4756 59.8542 87.4756 59.1543V58.0546C87.4756 57.3547 88.0419 56.7881 88.7414 56.7881H89.8407C90.5402 56.7881 91.1065 57.3547 91.1065 58.0546V59.1543C91.1065 59.8875 90.5402 60.4207 89.8407 60.4207ZM88.8414 59.0877H89.7741V58.1545H88.8414V59.0877Z" fill="#AFAAE5"/>
    </g>
    <g opacity="0.5">
      <path opacity="0.5" d="M99.7007 59.321H93.1384C92.772 59.321 92.4722 59.021 92.4722 58.6544C92.4722 58.2879 92.772 57.9879 93.1384 57.9879H99.7007C100.067 57.9879 100.367 58.2879 100.367 58.6544C100.367 59.021 100.067 59.321 99.7007 59.321Z" fill="#AFAAE5"/>
    </g>
  </g>
  <path d="M167.256 46.457H84.977C84.6106 46.457 84.3108 46.157 84.3108 45.7904C84.3108 45.4238 84.6106 45.1239 84.977 45.1239H167.256C167.622 45.1239 167.922 45.4238 167.922 45.7904C167.922 46.157 167.622 46.457 167.256 46.457Z" fill="#341472"/>
  <path d="M196.037 123.341C195.671 123.341 195.371 123.041 195.371 122.674V50.3562C195.371 48.19 193.605 46.4237 191.44 46.4237H185.377C185.011 46.4237 184.711 46.1238 184.711 45.7572C184.711 45.3906 185.011 45.0906 185.377 45.0906H191.44C194.338 45.0906 196.703 47.4568 196.703 50.3562V122.674C196.703 123.041 196.403 123.341 196.037 123.341Z" fill="#341472"/>
  <path d="M191.44 160H59.5606C56.6625 160 54.2974 157.634 54.2974 154.734V153.101C54.2974 152.735 54.5972 152.435 54.9636 152.435C55.33 152.435 55.6298 152.735 55.6298 153.101V154.734C55.6298 156.901 57.3953 158.667 59.5606 158.667H191.44C193.605 158.667 195.371 156.901 195.371 154.734V150.969C195.371 150.602 195.671 150.302 196.037 150.302C196.403 150.302 196.703 150.602 196.703 150.969V154.734C196.703 157.634 194.338 160 191.44 160Z" fill="#341472"/>
  <path d="M54.9968 121.841C54.6304 121.841 54.3306 121.541 54.3306 121.175V50.3562C54.3306 47.4568 56.6957 45.0906 59.5937 45.0906H63.691C64.0575 45.0906 64.3573 45.3906 64.3573 45.7572C64.3573 46.1238 64.0575 46.4237 63.691 46.4237H59.5937C57.4285 46.4237 55.663 48.19 55.663 50.3562V121.175C55.663 121.541 55.3632 121.841 54.9968 121.841Z" fill="#341472"/>
  <g opacity="0.5">
    <path opacity="0.5" d="M164.491 102.512H86.5426C86.3427 102.512 86.2095 102.379 86.2095 102.179C86.2095 101.979 86.3427 101.845 86.5426 101.845H164.524C164.724 101.845 164.857 101.979 164.857 102.179C164.857 102.379 164.691 102.512 164.491 102.512Z" fill="#AFAAE5"/>
  </g>
  <g opacity="0.5">
    <path opacity="0.5" d="M164.491 125.674H86.5426C86.3427 125.674 86.2095 125.541 86.2095 125.341C86.2095 125.141 86.3427 125.007 86.5426 125.007H164.524C164.724 125.007 164.857 125.141 164.857 125.341C164.857 125.541 164.691 125.674 164.491 125.674Z" fill="#AFAAE5"/>
  </g>
  <g opacity="0.5">
    <path opacity="0.5" d="M164.491 138.804H86.5426C86.3427 138.804 86.2095 138.671 86.2095 138.471C86.2095 138.271 86.3427 138.138 86.5426 138.138H164.524C164.724 138.138 164.857 138.271 164.857 138.471C164.857 138.671 164.691 138.804 164.491 138.804Z" fill="#AFAAE5"/>
  </g>
  <g opacity="0.5">
    <path opacity="0.5" d="M164.491 152.168H86.5426C86.3427 152.168 86.2095 152.035 86.2095 151.835C86.2095 151.635 86.3427 151.502 86.5426 151.502H164.524C164.724 151.502 164.857 151.635 164.857 151.835C164.857 152.035 164.691 152.168 164.491 152.168Z" fill="#AFAAE5"/>
  </g>
  <path d="M164.491 119.408H160.161C159.794 119.408 159.494 119.108 159.494 118.742C159.494 118.375 159.794 118.075 160.161 118.075H164.491C164.858 118.075 165.157 118.375 165.157 118.742C165.157 119.108 164.858 119.408 164.491 119.408Z" fill="#341472"/>
  <path d="M122.053 119.408H100.334C99.9673 119.408 99.6675 119.108 99.6675 118.742C99.6675 118.375 99.9673 118.075 100.334 118.075H122.053C122.419 118.075 122.719 118.375 122.719 118.742C122.719 119.108 122.419 119.408 122.053 119.408Z" fill="#341472"/>
  <path d="M94.3709 109.177H86.5427C86.1763 109.177 85.8765 108.877 85.8765 108.511C85.8765 108.144 86.1763 107.844 86.5427 107.844H94.3709C94.7373 107.844 95.0371 108.144 95.0371 108.511C95.0371 108.877 94.7373 109.177 94.3709 109.177Z" fill="#341472"/>
  <g opacity="0.5">
    <path opacity="0.5" d="M107.862 109.177H100.034C99.6675 109.177 99.3677 108.877 99.3677 108.511C99.3677 108.144 99.6675 107.844 100.034 107.844H107.862C108.228 107.844 108.528 108.144 108.528 108.511C108.528 108.877 108.228 109.177 107.862 109.177Z" fill="#AFAAE5"/>
  </g>
  <path d="M110.594 94.0471H87.4089C86.676 94.0471 86.0764 93.4472 86.0764 92.714C86.0764 91.9809 86.676 91.381 87.4089 91.381H110.594C111.326 91.381 111.926 91.9809 111.926 92.714C111.926 93.4472 111.326 94.0471 110.594 94.0471Z" fill="#341472"/>
  <path d="M92.3722 122.674H88.5414C87.4421 122.674 86.5427 121.775 86.5427 120.675V116.842C86.5427 115.743 87.4421 114.843 88.5414 114.843H92.3722C93.4715 114.843 94.3709 115.743 94.3709 116.842V120.675C94.3709 121.775 93.4715 122.674 92.3722 122.674Z" fill="#CAB5FF"/>
  <path d="M154.431 119.408H152.766C152.399 119.408 152.099 119.108 152.099 118.742C152.099 118.375 152.399 118.075 152.766 118.075H154.431C154.798 118.075 155.097 118.375 155.097 118.742C155.097 119.108 154.798 119.408 154.431 119.408Z" fill="#341472"/>
  <path d="M147.769 119.408H146.103C145.737 119.408 145.437 119.108 145.437 118.742C145.437 118.375 145.737 118.075 146.103 118.075H147.769C148.135 118.075 148.435 118.375 148.435 118.742C148.435 119.108 148.135 119.408 147.769 119.408Z" fill="#341472"/>
  <path d="M164.491 132.606H160.161C159.794 132.606 159.494 132.306 159.494 131.939C159.494 131.573 159.794 131.273 160.161 131.273H164.491C164.858 131.273 165.157 131.573 165.157 131.939C165.157 132.306 164.858 132.606 164.491 132.606Z" fill="#341472"/>
  <path d="M141.173 132.606H100.334C99.9673 132.606 99.6675 132.306 99.6675 131.939C99.6675 131.573 99.9673 131.273 100.334 131.273H141.207C141.573 131.273 141.873 131.573 141.873 131.939C141.873 132.306 141.54 132.606 141.173 132.606Z" fill="#341472"/>
  <path d="M92.3722 135.872H88.5414C87.4421 135.872 86.5427 134.972 86.5427 133.872V130.04C86.5427 128.94 87.4421 128.04 88.5414 128.04H92.3722C93.4715 128.04 94.3709 128.94 94.3709 130.04V133.872C94.3709 134.972 93.4715 135.872 92.3722 135.872Z" fill="#FFA1A1"/>
  <path d="M154.431 132.606H152.766C152.399 132.606 152.099 132.306 152.099 131.939C152.099 131.573 152.399 131.273 152.766 131.273H154.431C154.798 131.273 155.097 131.573 155.097 131.939C155.097 132.306 154.798 132.606 154.431 132.606Z" fill="#341472"/>
  <path d="M147.769 132.606H146.103C145.737 132.606 145.437 132.306 145.437 131.939C145.437 131.573 145.737 131.273 146.103 131.273H147.769C148.135 131.273 148.435 131.573 148.435 131.939C148.435 132.306 148.135 132.606 147.769 132.606Z" fill="#341472"/>
  <path d="M164.491 145.803H159.594C159.228 145.803 158.928 145.503 158.928 145.136C158.928 144.77 159.228 144.47 159.594 144.47H164.491C164.858 144.47 165.157 144.77 165.157 145.136C165.157 145.503 164.858 145.803 164.491 145.803Z" fill="#341472"/>
  <path d="M108.128 145.803H100.3C99.9338 145.803 99.634 145.503 99.634 145.136C99.634 144.77 99.9338 144.47 100.3 144.47H108.128C108.495 144.47 108.795 144.77 108.795 145.136C108.795 145.503 108.495 145.803 108.128 145.803Z" fill="#341472"/>
  <path d="M137.109 145.803H113.925C113.558 145.803 113.259 145.503 113.259 145.136C113.259 144.77 113.558 144.47 113.925 144.47H137.143C137.509 144.47 137.809 144.77 137.809 145.136C137.809 145.503 137.476 145.803 137.109 145.803Z" fill="#341472"/>
  <path d="M92.3722 149.069H88.5414C87.4421 149.069 86.5427 148.169 86.5427 147.069V143.237C86.5427 142.137 87.4421 141.237 88.5414 141.237H92.3722C93.4715 141.237 94.3709 142.137 94.3709 143.237V147.069C94.3709 148.169 93.4715 149.069 92.3722 149.069Z" fill="#99E0FF"/>
  <path d="M153.865 145.803H152.199C151.833 145.803 151.533 145.503 151.533 145.136C151.533 144.77 151.833 144.47 152.199 144.47H153.865C154.231 144.47 154.531 144.77 154.531 145.136C154.531 145.503 154.231 145.803 153.865 145.803Z" fill="#341472"/>
  <path d="M147.203 145.803H145.537C145.171 145.803 144.871 145.503 144.871 145.136C144.871 144.77 145.171 144.47 145.537 144.47H147.203C147.569 144.47 147.869 144.77 147.869 145.136C147.869 145.503 147.569 145.803 147.203 145.803Z" fill="#341472"/>
  <path d="M162.992 90.2146H146.969C146.137 90.2146 145.47 90.8811 145.47 91.7143V93.7472C145.47 94.5804 146.137 95.2469 146.969 95.2469H162.992C163.825 95.2469 164.491 94.5804 164.491 93.7472V91.7143C164.491 90.8811 163.825 90.2146 162.992 90.2146Z" fill="#38F2AF"/>
  <path d="M162.992 95.8801H146.969C145.77 95.8801 144.804 94.9136 144.804 93.7138V91.6809C144.804 90.4812 145.77 89.5147 146.969 89.5147H162.992C164.191 89.5147 165.157 90.4812 165.157 91.6809V93.7138C165.157 94.9136 164.191 95.8801 162.992 95.8801ZM147.003 90.8811C146.536 90.8811 146.17 91.2477 146.17 91.7143V93.7472C146.17 94.2137 146.536 94.5803 147.003 94.5803H163.025C163.492 94.5803 163.858 94.2137 163.858 93.7472V91.7143C163.858 91.2477 163.492 90.8811 163.025 90.8811H147.003Z" fill="#38F2AF"/>
  <path d="M194.705 78.8836H56.3293V85.3156H194.705V78.8836Z" fill="#341472"/>
  <path d="M195.371 86.0154H55.6631V78.2504H195.371V86.0154ZM56.9955 84.6824H194.038V79.5834H56.9955V84.6824Z" fill="#341472"/>
  <path d="M62.9916 79.8833C62.8916 79.6167 62.4919 79.6167 62.4253 79.8833L62.1255 81.1164C62.0922 81.2164 61.9922 81.283 61.8923 81.283H60.36C60.26 81.283 60.1601 81.2164 60.1268 81.1164L59.7937 79.85C59.7271 79.5501 59.3273 79.5501 59.2274 79.85C59.2274 79.85 58.8943 81.0498 58.6611 81.7829C58.5612 82.0829 58.6944 82.4161 58.9609 82.6161L60.7597 83.9158C60.9596 84.0825 61.2594 84.0825 61.4926 83.9158L63.2914 82.6161C63.5579 82.4161 63.6578 82.0829 63.5912 81.7829L62.9916 79.8833Z" fill="#FC6D26"/>
  <g opacity="0.2">
    <path opacity="0.2" d="M70.5535 82.7495H66.4562C65.9898 82.7495 65.5901 82.3495 65.5901 81.883C65.5901 81.4164 65.9898 81.0165 66.4562 81.0165H70.5535C71.0199 81.0165 71.4196 81.4164 71.4196 81.883C71.4196 82.3495 71.0199 82.7495 70.5535 82.7495Z" fill="white"/>
  </g>
  <g opacity="0.2">
    <path opacity="0.2" d="M90.1404 82.7495H86.0431C85.5767 82.7495 85.177 82.3495 85.177 81.883C85.177 81.4164 85.5767 81.0165 86.0431 81.0165H90.1404C90.6068 81.0165 91.0065 81.4164 91.0065 81.883C91.0065 82.3495 90.6068 82.7495 90.1404 82.7495Z" fill="white"/>
  </g>
  <g opacity="0.2">
    <path opacity="0.2" d="M97.6355 82.7495H93.5382C93.0718 82.7495 92.6721 82.3495 92.6721 81.883C92.6721 81.4164 93.0718 81.0165 93.5382 81.0165H97.6355C98.1019 81.0165 98.5016 81.4164 98.5016 81.883C98.5016 82.3495 98.1352 82.7495 97.6355 82.7495Z" fill="white"/>
  </g>
  <g opacity="0.5">
    <path opacity="0.5" d="M82.3122 83.5159H74.3175C73.8512 83.5159 73.4514 83.116 73.4514 82.6494V81.0831C73.4514 80.6165 73.8512 80.2166 74.3175 80.2166H82.3122C82.7786 80.2166 83.1783 80.6165 83.1783 81.0831V82.6494C83.1783 83.1493 82.7786 83.5159 82.3122 83.5159Z" fill="white"/>
  </g>
  <g opacity="0.2">
    <path opacity="0.2" d="M178.149 83.4826H164.824C164.192 83.4826 163.692 82.9827 163.692 82.3495V81.3164C163.692 80.6832 164.192 80.1833 164.824 80.1833H178.149C178.782 80.1833 179.282 80.6832 179.282 81.3164V82.3495C179.282 82.9827 178.782 83.4826 178.149 83.4826Z" fill="white"/>
  </g>
  <g opacity="0.2">
    <path opacity="0.2" d="M191.673 83.8158C192.759 83.8158 193.639 82.9355 193.639 81.8496C193.639 80.7636 192.759 79.8833 191.673 79.8833C190.588 79.8833 189.708 80.7636 189.708 81.8496C189.708 82.9355 190.588 83.8158 191.673 83.8158Z" fill="white"/>
  </g>
  <g opacity="0.2">
    <path opacity="0.2" d="M186.876 83.216H186.277C185.777 83.216 185.411 82.8161 185.411 82.3495V81.3497C185.411 80.8498 185.81 80.4832 186.277 80.4832H186.876C187.376 80.4832 187.742 80.8831 187.742 81.3497V82.3495C187.742 82.8161 187.343 83.216 186.876 83.216Z" fill="white"/>
  </g>
  <g opacity="0.2">
    <path opacity="0.2" d="M182.813 83.216H182.213C181.713 83.216 181.347 82.8161 181.347 82.3495V81.3497C181.347 80.8498 181.747 80.4832 182.213 80.4832H182.813C183.312 80.4832 183.679 80.8831 183.679 81.3497V82.3495C183.712 82.8161 183.312 83.216 182.813 83.216Z" fill="white"/>
  </g>
  <path d="M207.429 152.901C215.598 152.901 222.22 146.277 222.22 138.105C222.22 129.932 215.598 123.308 207.429 123.308C199.261 123.308 192.639 129.932 192.639 138.105C192.639 146.277 199.261 152.901 207.429 152.901Z" fill="white"/>
  <path d="M205.631 137.305C204.964 138.371 205.431 139.838 206.63 140.271L216.923 144.437L208.729 136.938C207.829 136.038 206.33 136.238 205.631 137.305Z" fill="#AC7FFF"/>
  <path d="M218.022 138.238H214.924C214.558 138.238 214.258 137.938 214.258 137.571C214.258 137.205 214.558 136.905 214.924 136.905H218.022C218.389 136.905 218.688 137.205 218.688 137.571C218.688 137.938 218.389 138.238 218.022 138.238Z" fill="#380D75"/>
  <path d="M199.901 138.238H196.803C196.437 138.238 196.137 137.938 196.137 137.571C196.137 137.205 196.437 136.905 196.803 136.905H199.901C200.267 136.905 200.567 137.205 200.567 137.571C200.567 137.938 200.267 138.238 199.901 138.238Z" fill="#380D75"/>
  <path d="M207.429 130.706C207.063 130.706 206.763 130.406 206.763 130.04V126.94C206.763 126.574 207.063 126.274 207.429 126.274C207.796 126.274 208.095 126.574 208.095 126.94V130.04C208.095 130.406 207.796 130.706 207.429 130.706Z" fill="#380D75"/>
  <path d="M201.233 133.139C201.067 133.139 200.9 133.072 200.767 132.939L198.569 130.739C198.302 130.473 198.302 130.073 198.569 129.806C198.835 129.54 199.235 129.54 199.501 129.806L201.7 132.006C201.966 132.272 201.966 132.672 201.7 132.939C201.6 133.072 201.4 133.139 201.233 133.139Z" fill="#380D75"/>
  <path d="M213.592 133.139C213.425 133.139 213.259 133.072 213.125 132.939C212.859 132.672 212.859 132.272 213.125 132.006L215.324 129.806C215.59 129.54 215.99 129.54 216.257 129.806C216.523 130.073 216.523 130.473 216.257 130.739L214.058 132.939C213.925 133.072 213.758 133.139 213.592 133.139Z" fill="#380D75"/>
  <path d="M199.301 145.303C199.135 145.303 198.968 145.236 198.835 145.103C198.569 144.836 198.569 144.437 198.835 144.17L201.034 141.97C201.3 141.704 201.7 141.704 201.966 141.97C202.233 142.237 202.233 142.637 201.966 142.904L199.768 145.103C199.635 145.236 199.468 145.303 199.301 145.303Z" fill="#380D75"/>
  <path d="M217.323 145.07C217.256 145.07 217.156 145.07 217.09 145.036L206.663 141.204C205.897 140.937 205.297 140.371 205.031 139.604C204.731 138.838 204.831 138.005 205.231 137.305C205.63 136.605 206.33 136.138 207.129 136.005C207.929 135.872 208.728 136.138 209.328 136.672L217.756 143.87C217.989 144.07 218.056 144.437 217.889 144.703C217.789 144.97 217.556 145.07 217.323 145.07ZM206.363 138.005C206.163 138.371 206.13 138.771 206.263 139.171C206.397 139.538 206.696 139.838 207.096 139.971L214.091 142.537L208.462 137.705C208.129 137.405 207.729 137.305 207.329 137.371C206.93 137.405 206.563 137.638 206.363 138.005Z" fill="#380D75"/>
  <path d="M210.694 153.101C210.394 153.101 210.127 152.902 210.061 152.568C209.994 152.202 210.194 151.868 210.56 151.768C216.923 150.335 221.553 144.537 221.553 137.971C221.553 130.173 215.224 123.841 207.429 123.841C207.063 123.841 206.763 123.541 206.763 123.174C206.763 122.808 207.063 122.508 207.429 122.508C215.957 122.508 222.886 129.44 222.886 137.971C222.886 145.136 217.822 151.502 210.827 153.068C210.794 153.101 210.727 153.101 210.694 153.101Z" fill="#380D75"/>
  <path d="M207.429 153.468C198.902 153.468 191.973 146.536 191.973 138.005C191.973 130.406 197.403 123.974 204.898 122.741C205.264 122.674 205.597 122.941 205.664 123.274C205.73 123.641 205.464 123.974 205.131 124.041C198.302 125.174 193.305 131.039 193.305 137.971C193.305 145.77 199.635 152.102 207.429 152.102C207.796 152.102 208.096 152.402 208.096 152.768C208.096 153.135 207.796 153.468 207.429 153.468Z" fill="#380D75"/>
  <path d="M60.3601 25.9279C62.7585 25.328 66.7892 23.6284 69.4208 18.996C76.0164 23.5617 82.5788 20.6957 82.5788 20.6957C84.2443 29.1939 86.0431 32.2599 84.9105 37.2589C84.1111 40.7582 79.8472 45.8904 76.1164 48.2566C71.7526 47.7234 65.6566 44.9906 63.4248 42.1912C60.2602 38.2254 60.5267 34.6594 58.3281 26.2612" fill="white"/>
  <path d="M77.5821 29.3272L75.8832 28.2608C75.4835 28.0275 74.9838 28.1275 74.7173 28.5274L71.4528 33.7263L69.4541 32.4932C69.0544 32.2599 68.5547 32.3599 68.2882 32.7598L67.2223 34.4595C66.9891 34.8594 67.089 35.3593 67.4888 35.6259L72.0191 38.4587C72.3522 38.6586 72.752 38.5586 72.9851 38.2254L77.8486 30.4603C78.0818 30.0937 77.9818 29.5938 77.5821 29.3272Z" fill="#18A3FF"/>
  <path d="M76.1497 48.8231C76.1164 48.8231 76.0831 48.8231 76.0831 48.8231C71.8525 48.3232 65.4235 45.5905 62.9584 42.5244C60.66 39.6251 60.0937 36.9256 59.2276 32.7931C58.8611 30.9602 58.4281 28.894 57.7619 26.3611C57.6619 25.9946 57.8951 25.628 58.2282 25.5613C58.5947 25.4613 58.9611 25.6946 59.0277 26.0279C59.6939 28.594 60.127 30.6936 60.5267 32.5265C61.3928 36.5924 61.8925 39.0585 63.9911 41.6913C66.0231 44.2241 71.8525 46.9902 76.2496 47.5234C76.6161 47.5567 76.8825 47.89 76.8492 48.2566C76.7493 48.5899 76.4828 48.8231 76.1497 48.8231Z" fill="#380D75"/>
  <path d="M76.1497 48.8232C75.9165 48.8232 75.7166 48.7232 75.5834 48.5232C75.3835 48.2233 75.4834 47.79 75.7832 47.5901C79.5141 45.1906 83.5781 40.1583 84.2776 36.9923C85.0105 33.693 84.4109 31.2602 83.4115 27.2277C83.0118 25.5947 82.5454 23.7284 82.0791 21.4955C80.1803 22.0954 75.0171 23.1952 69.654 19.8292C66.8558 24.2949 62.7585 25.8946 60.5267 26.4612C60.1602 26.5611 59.7938 26.3278 59.7272 25.9946C59.6273 25.628 59.8604 25.2614 60.1936 25.1948C62.3255 24.6615 66.2895 23.0619 68.8545 18.5628C68.9544 18.3962 69.0877 18.2962 69.2875 18.2295C69.4874 18.1962 69.6873 18.2295 69.8205 18.3295C76.0164 22.5953 82.279 19.9958 82.3456 19.9958C82.5454 19.9292 82.7453 19.9292 82.9119 20.0292C83.0784 20.1291 83.2117 20.2958 83.245 20.4957C83.7446 23.0619 84.2443 25.1281 84.7107 26.9277C85.7433 31.0269 86.4096 33.7263 85.5768 37.3256C84.7107 41.1914 80.0804 46.457 76.4828 48.7232C76.3829 48.7898 76.2496 48.8232 76.1497 48.8232Z" fill="#380D75"/>
  <path d="M72.1858 38.9919C71.8193 38.9919 71.4529 38.8919 71.1198 38.6919L67.1558 36.1924C66.4562 35.7592 66.223 34.8261 66.6894 34.1262L67.7554 32.4266C68.1884 31.7267 69.1211 31.4934 69.8207 31.96L71.253 32.8598L74.1511 28.2274C74.5842 27.5276 75.5169 27.2943 76.2164 27.7609L77.9153 28.8273C78.2484 29.0273 78.4816 29.3605 78.5815 29.7604C78.6815 30.1604 78.6148 30.5603 78.3817 30.8935L73.8846 38.092C73.5182 38.6586 72.852 38.9919 72.1858 38.9919ZM69.0212 33.0264C68.9546 33.0264 68.8879 33.0598 68.8546 33.0931L67.7887 34.7927C67.7221 34.8594 67.7554 34.9927 67.8553 35.026L71.8193 37.5255C72.1525 37.7255 72.5522 37.6255 72.7521 37.3255L77.2824 30.1604C77.3157 30.0937 77.3157 30.0604 77.3157 30.0271C77.3157 29.9937 77.2824 29.9604 77.2491 29.9271L75.5502 28.8606C75.4836 28.794 75.3503 28.8273 75.317 28.9273L72.0525 34.1262C71.9526 34.2595 71.8193 34.3928 71.6528 34.4261C71.4862 34.4595 71.2864 34.4261 71.1531 34.3262L69.1544 33.0931C69.0878 33.0598 69.0545 33.0264 69.0212 33.0264Z" fill="#380D75"/>
  <path d="M176.317 49.0231C173.518 48.7232 171.52 46.1904 171.853 43.391L172.752 33.9263L183.112 35.0927L182.146 42.5578L181.913 44.5241C181.613 47.3235 179.115 49.3231 176.317 49.0231Z" fill="#AC7FFF"/>
  <path d="M181.746 21.7621C182.813 21.7621 183.678 20.8967 183.678 19.8292C183.678 18.7616 182.813 17.8962 181.746 17.8962C180.679 17.8962 179.814 18.7616 179.814 19.8292C179.814 20.8967 180.679 21.7621 181.746 21.7621Z" fill="#AC7FFF"/>
  <path d="M176.916 49.9896C176.683 49.9896 176.45 49.9896 176.25 49.9562C172.952 49.5896 170.587 46.5903 170.953 43.3243L172.386 30.6602C172.419 30.2937 172.752 30.027 173.119 30.0604C173.485 30.0937 173.752 30.427 173.718 30.7936L172.286 43.4576C171.986 46.0237 173.852 48.3232 176.383 48.6232C178.948 48.9231 181.247 47.0568 181.546 44.524L182.979 31.86C183.012 31.4934 183.345 31.2268 183.712 31.2601C184.078 31.2934 184.345 31.6267 184.311 31.9933L182.879 44.6573C182.546 47.7234 179.947 49.9896 176.916 49.9896Z" fill="#380D75"/>
  <path d="M184.811 29.8937C184.744 29.8937 184.678 29.8937 184.578 29.8937L172.552 28.5274C171.453 28.3941 170.687 27.4276 170.787 26.3278L170.92 25.1614C171.053 24.0616 172.019 23.2951 173.119 23.3951L185.144 24.7615C185.677 24.8281 186.143 25.0948 186.476 25.4947C186.81 25.9279 186.943 26.4278 186.91 26.961L186.776 28.1275C186.676 29.1272 185.81 29.8937 184.811 29.8937ZM172.952 24.7282C172.619 24.7282 172.319 24.9948 172.286 25.328L172.153 26.4945C172.119 26.861 172.386 27.1943 172.752 27.2276L184.778 28.594C184.944 28.6273 185.111 28.5607 185.277 28.4607C185.411 28.3607 185.51 28.1941 185.51 28.0275L185.644 26.861C185.677 26.6944 185.61 26.5278 185.51 26.3612C185.411 26.2278 185.244 26.1279 185.077 26.1279L173.052 24.7615C172.985 24.7282 172.952 24.7282 172.952 24.7282Z" fill="#380D75"/>
  <path d="M181.546 22.3953C181.513 22.3953 181.48 22.3953 181.48 22.3953C180.081 22.2287 179.048 20.9623 179.214 19.5292C179.281 18.8294 179.647 18.2295 180.18 17.7963C180.713 17.363 181.38 17.1631 182.079 17.263C182.779 17.3297 183.378 17.6963 183.811 18.2295C184.244 18.7627 184.444 19.4293 184.344 20.1291C184.311 20.4957 183.978 20.7623 183.612 20.729C183.245 20.6957 182.979 20.3624 183.012 19.9958C183.045 19.6625 182.945 19.3293 182.745 19.0627C182.546 18.7961 182.246 18.6294 181.913 18.5961C181.58 18.5628 181.246 18.6628 180.98 18.8627C180.713 19.0627 180.547 19.3626 180.514 19.6959C180.447 20.3957 180.947 20.9956 181.613 21.0956C181.979 21.1289 182.246 21.4622 182.212 21.8288C182.146 22.1287 181.879 22.3953 181.546 22.3953Z" fill="#380D75"/>
  <path d="M175.417 31.5267C175.384 31.5267 175.351 31.5267 175.351 31.5267L173.019 31.2601C172.652 31.2268 172.386 30.8935 172.419 30.5269C172.452 30.1604 172.786 29.8937 173.152 29.9271L175.484 30.1937C175.85 30.227 176.117 30.5603 176.083 30.9269C176.05 31.2601 175.75 31.5267 175.417 31.5267Z" fill="#380D75"/>
  <path d="M179.614 35.3926C179.581 35.3926 179.548 35.3926 179.548 35.3926L172.619 34.5928C172.253 34.5594 171.986 34.2262 172.019 33.8596C172.053 33.493 172.386 33.2264 172.752 33.2597L179.681 34.0595C180.047 34.0929 180.314 34.4261 180.281 34.7927C180.247 35.1593 179.947 35.3926 179.614 35.3926Z" fill="#380D75"/>
  <path d="M174.651 38.2587C174.618 38.2587 174.584 38.2587 174.584 38.2587L172.253 37.9921C171.886 37.9587 171.62 37.6255 171.653 37.2589C171.686 36.8923 172.019 36.6257 172.386 36.659L174.718 36.9256C175.084 36.9589 175.35 37.2922 175.317 37.6588C175.284 37.9921 174.984 38.2587 174.651 38.2587Z" fill="#380D75"/>
  <path d="M174.284 41.6246C174.251 41.6246 174.218 41.6246 174.218 41.6246L171.886 41.358C171.52 41.3247 171.253 40.9914 171.287 40.6248C171.32 40.2583 171.653 39.9916 172.019 40.025L174.351 40.2916C174.718 40.3249 174.984 40.6582 174.951 41.0248C174.884 41.358 174.618 41.6246 174.284 41.6246Z" fill="#380D75"/>
  <path d="M12.3586 109.277L15.823 106.744C15.923 106.678 15.9563 106.545 15.923 106.445L14.7237 102.779C14.6904 102.645 14.4906 102.645 14.4573 102.779L13.6578 105.211H11.0262L10.2267 102.779C10.1934 102.645 9.99354 102.645 9.96023 102.779L8.76103 106.445C8.72772 106.545 8.76103 106.678 8.86096 106.744L12.3586 109.277Z" fill="#FC6D26"/>
  <path d="M1.49901 110.777C1.23252 110.777 0.999339 110.61 0.866094 110.344C0.299802 108.911 0 107.378 0 105.778C0 98.9794 5.52968 93.4139 12.3585 93.4139C13.9241 93.4139 15.4564 93.7138 16.9221 94.2804C17.2553 94.4137 17.4218 94.8136 17.2886 95.1469C17.1553 95.4801 16.7556 95.6468 16.4225 95.5134C15.1233 95.0136 13.7576 94.7469 12.3585 94.7469C6.26252 94.8136 1.33245 99.7459 1.33245 105.811C1.33245 107.211 1.59894 108.577 2.09861 109.877C2.23186 110.21 2.0653 110.61 1.73219 110.744C1.66557 110.777 1.56563 110.777 1.49901 110.777Z" fill="#380D75"/>
  <path d="M12.3588 118.175C10.46 118.175 8.62789 117.742 6.96233 116.942C6.62921 116.776 6.49597 116.376 6.66253 116.043C6.82908 115.709 7.22882 115.576 7.56193 115.743C9.06094 116.476 10.6932 116.842 12.3921 116.842C18.4547 116.842 23.4181 111.91 23.4181 105.811C23.4181 104.245 23.085 102.712 22.4521 101.312C22.2855 100.979 22.4521 100.579 22.7852 100.446C23.1183 100.279 23.518 100.446 23.6513 100.779C24.3508 102.379 24.7173 104.078 24.7173 105.811C24.6839 112.643 19.1543 118.175 12.3588 118.175Z" fill="#380D75"/>
  <path d="M4.33029 106.478C3.96386 106.478 3.66406 106.178 3.66406 105.811C3.66406 103.478 4.56347 101.312 6.19572 99.6792C9.59347 96.2799 15.0898 96.2799 18.4876 99.6792C18.7874 99.9792 19.0872 100.312 19.3204 100.646C19.5536 100.946 19.4869 101.346 19.1871 101.579C18.8873 101.812 18.4876 101.745 18.2544 101.446C18.0545 101.146 17.7881 100.879 17.5549 100.612C14.6901 97.7463 10.0265 97.7463 7.16175 100.612C5.76267 102.012 4.99651 103.845 4.99651 105.811C4.99651 106.178 4.69671 106.478 4.33029 106.478Z" fill="#380D75"/>
  <path d="M12.3587 114.509C10.1269 114.509 7.89502 113.676 6.22946 111.977C5.92965 111.677 5.62985 111.343 5.36336 110.977C5.13018 110.677 5.19681 110.277 5.49661 110.044C5.79641 109.81 6.19614 109.877 6.42932 110.177C6.6625 110.477 6.89568 110.744 7.16217 111.01C10.0269 113.876 14.6905 113.876 17.5553 111.01C18.9544 109.611 19.7205 107.778 19.7205 105.811C19.7205 105.445 20.0203 105.145 20.3868 105.145C20.7532 105.145 21.053 105.445 21.053 105.811C21.053 108.144 20.1536 110.31 18.5213 111.943C16.7891 113.676 14.5573 114.509 12.3587 114.509Z" fill="#380D75"/>
  <path d="M18.7876 101.712H16.6557C16.2893 101.712 15.9895 101.412 15.9895 101.046C15.9895 100.679 16.2893 100.379 16.6557 100.379H18.1214V98.9127C18.1214 98.5462 18.4212 98.2462 18.7876 98.2462C19.1541 98.2462 19.4539 98.5462 19.4539 98.9127V101.046C19.4539 101.412 19.1541 101.712 18.7876 101.712Z" fill="#380D75"/>
  <path d="M5.89621 113.376C5.52978 113.376 5.22998 113.076 5.22998 112.71V110.577C5.22998 110.21 5.52978 109.91 5.89621 109.91H8.02813C8.39456 109.91 8.69436 110.21 8.69436 110.577C8.69436 110.944 8.39456 111.244 8.02813 111.244H6.56243V112.71C6.56243 113.076 6.26263 113.376 5.89621 113.376Z" fill="#380D75"/>
  <path d="M12.3586 109.944C12.2254 109.944 12.0921 109.91 11.9589 109.81L8.49452 107.311C8.16141 107.078 8.02817 106.644 8.16141 106.278L9.36062 102.612C9.46055 102.279 9.79367 102.045 10.1268 102.045C10.4599 102.045 10.793 102.279 10.8929 102.612L11.5259 104.578H13.1914L13.8243 102.612C13.9243 102.279 14.2241 102.045 14.5905 102.045C14.9236 102.045 15.2567 102.279 15.3567 102.579L16.5559 106.245C16.6891 106.644 16.5559 107.044 16.2228 107.311L12.7584 109.844C12.6251 109.91 12.4919 109.944 12.3586 109.944ZM9.49386 106.378L12.3253 108.444L15.1568 106.378L14.5572 104.512L14.2574 105.411C14.1574 105.678 13.9243 105.878 13.6245 105.878H10.9929C10.6931 105.878 10.4599 105.678 10.36 105.411L10.0602 104.512L9.49386 106.378Z" fill="#380D75"/>
  <path d="M21.9522 76.1175L18.4878 80.6165C18.4878 80.6165 25.1834 81.6163 29.1807 76.6507C30.4132 75.1177 30.813 73.1181 30.3466 71.2185L21.9522 76.1175Z" fill="#AC7FFF"/>
  <path d="M14.3573 67.9858L9.92686 71.5517C9.92686 71.5517 8.79427 64.8865 13.6577 60.7873C15.1567 59.5209 17.1554 59.0877 19.0542 59.4876L14.3573 67.9858Z" fill="#AC7FFF"/>
  <path d="M30.3467 63.4868C32.2968 63.4868 33.8777 61.9052 33.8777 59.9542C33.8777 58.0032 32.2968 56.4216 30.3467 56.4216C28.3966 56.4216 26.8157 58.0032 26.8157 59.9542C26.8157 61.9052 28.3966 63.4868 30.3467 63.4868Z" fill="#AC7FFF"/>
  <path d="M24.9501 74.2178L21.9521 76.1174L14.457 68.619L16.0893 64.9198L24.9501 74.2178Z" fill="#FCA121"/>
  <path d="M40.7396 56.5882C41.206 54.5886 41.3392 52.4224 41.0728 50.0562C38.5078 49.2564 36.0761 48.9898 33.7776 49.2231L40.7396 56.5882Z" fill="#FCA121"/>
  <path d="M21.9521 76.784C21.7855 76.784 21.619 76.7173 21.4857 76.584L13.7575 68.8523C13.5243 68.619 13.491 68.2858 13.6576 68.0191L19.6203 58.6211C22.7182 54.1887 26.2492 51.1893 30.1133 49.623C30.4465 49.4897 30.8462 49.6563 30.9794 49.9896C31.1127 50.3228 30.9461 50.7227 30.613 50.856C26.9821 52.3557 23.651 55.1885 20.7196 59.3876L15.0566 68.2857L22.0187 75.251L30.9461 69.5855C38.5411 64.2199 41.6724 57.6546 40.2067 50.0562C37.8749 49.623 35.643 49.5896 33.5444 49.9896C33.178 50.0562 32.8449 49.8229 32.7782 49.4563C32.7116 49.0897 32.9448 48.7565 33.3112 48.6898C35.743 48.2233 38.3079 48.2899 40.9395 48.8565C41.206 48.9231 41.4059 49.1231 41.4392 49.3564C43.238 57.688 39.9402 64.8531 31.7123 70.6853L22.3185 76.684C22.1853 76.7507 22.0853 76.784 21.9521 76.784Z" fill="#380D75"/>
  <path d="M24.6503 74.2845C24.4837 74.2845 24.3171 74.2178 24.1839 74.0845L16.3224 66.2528C16.0559 65.9862 16.0559 65.5863 16.3224 65.3197C16.5889 65.0531 16.9887 65.0531 17.2551 65.3197L25.0833 73.1514C25.3498 73.418 25.3498 73.8179 25.0833 74.0845C24.9834 74.2178 24.8168 74.2845 24.6503 74.2845Z" fill="#380D75"/>
  <path d="M30.3466 64.1533C29.2141 64.1533 28.1814 63.72 27.3819 62.9202C26.5825 62.1203 26.1494 61.0872 26.1494 59.9541C26.1494 58.821 26.5825 57.7879 27.3819 56.9881C28.1814 56.1882 29.2141 55.755 30.3466 55.755C31.4792 55.755 32.5119 56.1882 33.3113 56.9881C34.1108 57.7879 34.5439 58.821 34.5439 59.9541C34.5439 61.0872 34.1108 62.1203 33.3113 62.9202C32.5119 63.72 31.4792 64.1533 30.3466 64.1533ZM30.3466 57.0881C29.5805 57.0881 28.8809 57.388 28.3146 57.9212C27.7817 58.4544 27.4819 59.1876 27.4819 59.9541C27.4819 60.7206 27.7817 61.4205 28.3146 61.987C28.8476 62.5203 29.5805 62.8202 30.3466 62.8202C31.1128 62.8202 31.8123 62.5203 32.3786 61.987C32.9116 61.4538 33.2114 60.7206 33.2114 59.9541C33.2114 59.1876 32.9116 58.4878 32.3786 57.9212C31.8456 57.388 31.1128 57.0881 30.3466 57.0881Z" fill="#380D75"/>
  <path d="M40.6731 57.5213C40.5065 57.5213 40.34 57.4546 40.2067 57.3213L32.9782 49.8229C32.7117 49.5563 32.745 49.123 33.0115 48.8898C33.278 48.6232 33.711 48.6565 33.9442 48.9231L41.1728 56.4215C41.4393 56.6881 41.406 57.1214 41.1395 57.3547C41.0062 57.488 40.8397 57.5213 40.6731 57.5213Z" fill="#380D75"/>
  <path d="M9.69356 72.4849C9.62693 72.4849 9.527 72.4849 9.46038 72.4516C9.26051 72.3849 9.09395 72.185 9.02733 71.9517C8.99402 71.8517 7.36177 62.9869 15.8228 59.4543C16.1559 59.321 16.5557 59.4876 16.6889 59.8209C16.8222 60.1541 16.6556 60.5541 16.3225 60.6874C10.493 63.1202 10.0933 68.2858 10.1932 70.5853L13.7575 67.8525C14.0573 67.6192 14.4571 67.6859 14.6902 67.9858C14.9234 68.2858 14.8568 68.6857 14.557 68.919L10.06 72.3849C9.99336 72.4516 9.86011 72.4849 9.69356 72.4849Z" fill="#380D75"/>
  <path d="M20.2199 81.4164C19.1207 81.4164 18.3878 81.2831 18.3545 81.2831C18.1213 81.2497 17.9548 81.0831 17.8548 80.8498C17.7882 80.6499 17.8215 80.3832 17.9548 80.2166L21.4192 75.7176C21.6523 75.4176 22.0521 75.3843 22.3519 75.5842C22.6517 75.8175 22.685 76.2175 22.4851 76.5174L19.7536 80.0833C22.0854 80.2166 27.3486 79.75 29.747 73.6846C29.8802 73.3514 30.28 73.1847 30.6131 73.3181C30.9462 73.4514 31.1127 73.8513 30.9795 74.1845C28.4811 80.5166 23.0847 81.4164 20.2199 81.4164Z" fill="#380D75"/>
  <path d="M47.6685 122.608L48.4347 122.275C49.6339 121.741 51.0663 122.275 51.5992 123.508L60.7598 144.17C61.2928 145.37 60.7598 146.803 59.5273 147.336L43.2714 154.568C42.0722 155.101 40.6398 154.568 40.1068 153.335L30.9462 132.672C30.4133 131.473 30.9462 130.04 32.1787 129.506L33.1115 129.073" fill="white"/>
  <path d="M48.8276 124.933L33.7549 131.623L42.2783 150.845L57.3509 144.156L48.8276 124.933Z" fill="#38F2AF"/>
  <path d="M42.3053 155.401C41.9389 155.401 41.5725 155.334 41.2061 155.201C40.4399 154.901 39.8403 154.335 39.5072 153.601L30.3466 132.939C30.0135 132.206 29.9802 131.373 30.28 130.606C30.5798 129.84 31.1461 129.24 31.8789 128.907L32.8116 128.473C33.1447 128.34 33.5445 128.473 33.6777 128.807C33.811 129.14 33.6777 129.54 33.3446 129.673L32.4119 130.106C31.9788 130.306 31.679 130.639 31.5125 131.073C31.3459 131.506 31.3459 131.973 31.5458 132.406L40.7064 153.068C40.9063 153.501 41.2394 153.801 41.6724 153.968C42.1055 154.135 42.5718 154.135 43.0049 153.935L59.2608 146.703C59.6938 146.503 59.9936 146.17 60.1602 145.736C60.3268 145.303 60.3268 144.837 60.1269 144.403L50.9663 123.741C50.7664 123.308 50.4333 123.008 50.0003 122.841C49.5672 122.674 49.1009 122.674 48.6678 122.874L47.9016 123.208C47.5685 123.341 47.1688 123.208 47.0356 122.874C46.9023 122.541 47.0356 122.141 47.3687 122.008L48.1348 121.675C49.6671 120.975 51.4993 121.675 52.1655 123.241L61.3261 143.903C61.6592 144.637 61.6925 145.47 61.3927 146.236C61.0929 147.003 60.5266 147.603 59.7938 147.936L43.5379 155.168C43.1381 155.301 42.7051 155.401 42.3053 155.401Z" fill="#380D75"/>
  <path d="M36.4758 131.673C36.2093 131.673 35.9761 131.539 35.8762 131.273L33.9441 126.907C33.8109 126.574 33.9441 126.174 34.2772 126.04L35.8762 125.341C35.4431 123.208 36.6423 121.575 38.108 120.941C39.5737 120.308 41.6057 120.475 42.8716 122.241L44.4705 121.541C44.6371 121.475 44.8036 121.475 44.9702 121.541C45.1367 121.608 45.27 121.741 45.3366 121.908L47.2687 126.274C47.3353 126.44 47.3353 126.607 47.2687 126.774C47.202 126.94 47.0688 127.074 46.9022 127.14L36.7423 131.639C36.6757 131.673 36.5757 131.673 36.4758 131.673ZM35.4098 127.007L36.8089 130.173L45.7696 126.207L44.3706 123.041L42.8716 123.708C42.5718 123.841 42.172 123.708 42.0055 123.408C41.1727 121.875 39.707 121.708 38.6077 122.175C37.6084 122.608 36.6757 123.741 37.2753 125.507C37.3752 125.84 37.2419 126.174 36.9088 126.34L35.4098 127.007Z" fill="#380D75"/>
  <path d="M40.3399 136.238C40.2732 136.238 40.1733 136.238 40.1067 136.205L38.7742 135.705C38.4411 135.572 38.2746 135.172 38.4078 134.839C38.5411 134.505 38.9408 134.339 39.2739 134.472L39.9734 134.739L40.9395 132.206C41.0727 131.873 41.4724 131.706 41.8056 131.839C42.1387 131.973 42.3052 132.372 42.172 132.706L40.9395 135.872C40.8728 136.038 40.7396 136.172 40.573 136.238C40.5397 136.205 40.4398 136.238 40.3399 136.238Z" fill="#380D75"/>
  <path d="M44.8037 146.303C44.7371 146.303 44.6372 146.303 44.5706 146.27L43.2381 145.77C42.905 145.636 42.7384 145.236 42.8717 144.903C43.0049 144.57 43.4047 144.403 43.7378 144.537L44.4373 144.803L45.4033 142.27C45.5366 141.937 45.9363 141.771 46.2694 141.904C46.6025 142.037 46.7691 142.437 46.6359 142.77L45.4033 145.936C45.3367 146.136 45.0702 146.303 44.8037 146.303Z" fill="#380D75"/>
  <path d="M42.1722 141.537C42.1056 141.537 42.0057 141.537 41.939 141.504C41.6059 141.371 41.4394 140.971 41.5726 140.637L42.7718 137.505C42.9051 137.171 43.3048 137.005 43.6379 137.138C43.971 137.271 44.1376 137.671 44.0043 138.005L42.8051 141.137C42.6719 141.371 42.4387 141.537 42.1722 141.537Z" fill="#380D75"/>
  <path d="M44.3374 140.571C44.2708 140.571 44.1709 140.571 44.1042 140.537L40.973 139.338C40.6399 139.204 40.4733 138.804 40.6065 138.471C40.7398 138.138 41.1395 137.971 41.4726 138.105L44.6039 139.304C44.937 139.438 45.1036 139.838 44.9703 140.171C44.8371 140.437 44.6039 140.571 44.3374 140.571Z" fill="#380D75"/>
  <path d="M45.17 133.172C44.9035 133.172 44.6703 133.039 44.5703 132.772C44.4371 132.439 44.5703 132.039 44.9035 131.906L47.6017 130.706C47.9348 130.573 48.3345 130.706 48.4678 131.039C48.601 131.373 48.4678 131.773 48.1346 131.906L45.4364 133.106C45.3365 133.139 45.2366 133.172 45.17 133.172Z" fill="#380D75"/>
  <path d="M47.2354 137.871C46.9689 137.871 46.7357 137.738 46.6358 137.471C46.5025 137.138 46.6358 136.738 46.9689 136.605L49.6671 135.405C50.0002 135.272 50.3999 135.405 50.5332 135.738C50.6664 136.072 50.5332 136.472 50.2001 136.605L47.5019 137.805C47.4352 137.871 47.3353 137.871 47.2354 137.871Z" fill="#380D75"/>
  <path d="M49.4673 142.904C49.2008 142.904 48.9676 142.77 48.8677 142.504C48.7345 142.17 48.8677 141.77 49.2008 141.637L51.899 140.437C52.2322 140.304 52.6319 140.437 52.7651 140.771C52.8984 141.104 52.7651 141.504 52.432 141.637L49.7338 142.837C49.6672 142.904 49.5672 142.904 49.4673 142.904Z" fill="#380D75"/>
  <path d="M57.1956 145.27C56.9291 145.27 56.6959 145.136 56.596 144.87L48.1682 125.84C48.035 125.507 48.1682 125.107 48.5014 124.974C48.8345 124.841 49.2342 124.974 49.3675 125.307L57.7952 144.337C57.9285 144.67 57.7952 145.07 57.4621 145.203C57.3955 145.236 57.2955 145.27 57.1956 145.27Z" fill="#380D75"/>
  <path d="M42.805 151.635C42.7384 151.635 42.6384 151.635 42.5718 151.602C42.4052 151.535 42.272 151.402 42.2054 151.235L33.7776 132.206C33.6444 131.873 33.7776 131.473 34.1107 131.339C34.4438 131.206 34.8436 131.339 34.9768 131.673L43.1381 150.102L54.6305 145.003C54.9636 144.87 55.3633 145.003 55.4966 145.336C55.6298 145.67 55.4966 146.07 55.1635 146.203L43.0715 151.568C43.0049 151.635 42.9049 151.635 42.805 151.635Z" fill="#380D75"/>
  <path d="M230.981 112.077H227.916V115.143H230.981V112.077Z" fill="#FCA121"/>
  <path d="M239.975 111.144C242.881 111.144 245.238 108.786 245.238 105.878C245.238 102.97 242.881 100.612 239.975 100.612C237.068 100.612 234.711 102.97 234.711 105.878C234.711 108.786 237.068 111.144 239.975 111.144Z" fill="#38F2AF"/>
  <path d="M240.008 114.276H231.48C231.114 114.276 230.814 113.976 230.814 113.61C230.814 113.243 231.114 112.943 231.48 112.943H240.008C244.005 112.943 247.27 109.677 247.27 105.678C247.27 101.679 244.005 98.4129 240.008 98.4129C239.242 98.4129 238.476 98.5462 237.743 98.7795C237.377 98.8795 237.01 98.7128 236.91 98.3462C236.81 98.013 236.977 97.6131 237.343 97.5131C238.209 97.2131 239.109 97.0798 240.041 97.0798C244.772 97.0798 248.636 100.946 248.636 105.678C248.636 110.41 244.738 114.276 240.008 114.276Z" fill="#380D75"/>
  <path d="M250.568 114.276H247.003C246.637 114.276 246.337 113.976 246.337 113.61C246.337 113.243 246.637 112.943 247.003 112.943H250.568C250.934 112.943 251.234 113.243 251.234 113.61C251.234 113.976 250.934 114.276 250.568 114.276Z" fill="#380D75"/>
  <path d="M234.112 111.643C233.945 111.643 233.745 111.577 233.612 111.41C232.18 109.844 231.414 107.778 231.414 105.645C231.414 103.112 232.513 100.712 234.445 99.0793C234.711 98.8461 235.144 98.8794 235.378 99.146C235.611 99.4126 235.577 99.8459 235.311 100.079C233.679 101.479 232.746 103.478 232.746 105.611C232.746 107.411 233.412 109.144 234.611 110.477C234.845 110.744 234.845 111.177 234.578 111.41C234.445 111.61 234.278 111.643 234.112 111.643Z" fill="#380D75"/>
  <path d="M230.981 115.809H227.916C227.55 115.809 227.25 115.509 227.25 115.143V112.077C227.25 111.71 227.55 111.41 227.916 111.41H230.981C231.347 111.41 231.647 111.71 231.647 112.077V115.143C231.647 115.509 231.347 115.809 230.981 115.809ZM228.582 114.476H230.314V112.743H228.582V114.476Z" fill="#380D75"/>
  <path d="M249.868 116.143C249.702 116.143 249.535 116.076 249.402 115.943C249.135 115.676 249.135 115.276 249.402 115.009L250.701 113.71L249.402 112.41C249.135 112.143 249.135 111.743 249.402 111.477C249.668 111.21 250.068 111.21 250.334 111.477L252.133 113.276C252.4 113.543 252.4 113.943 252.133 114.21L250.334 116.009C250.201 116.076 250.035 116.143 249.868 116.143Z" fill="#380D75"/>
  <path d="M239.109 100.312C238.975 100.312 238.875 100.279 238.742 100.212L236.61 98.8461C236.31 98.6461 236.211 98.2462 236.41 97.913L237.776 95.7801C237.976 95.4801 238.376 95.3801 238.709 95.5801C239.009 95.7801 239.109 96.18 238.909 96.5132L237.909 98.0796L239.475 99.0794C239.775 99.2793 239.875 99.6793 239.675 100.013C239.542 100.212 239.342 100.312 239.109 100.312Z" fill="#380D75"/>
  <path d="M238.975 108.244C238.809 108.244 238.642 108.177 238.509 108.044L237.11 106.644C236.843 106.378 236.843 105.978 237.11 105.711C237.376 105.445 237.776 105.445 238.042 105.711L238.975 106.644L241.907 103.712C242.173 103.445 242.573 103.445 242.839 103.712C243.106 103.978 243.106 104.378 242.839 104.645L239.408 108.078C239.308 108.177 239.142 108.244 238.975 108.244Z" fill="#380D75"/>
  <path d="M125.517 26.2945L133.212 20.8623C133.412 20.6957 133.512 20.4624 133.445 20.1958L130.814 12.2974C130.714 12.0308 130.314 12.0308 130.247 12.2974L128.482 17.563H122.652L120.887 12.2974C120.787 12.0308 120.421 12.0308 120.321 12.2974L117.689 20.1958C117.622 20.4291 117.689 20.6957 117.922 20.8623L125.517 26.2945Z" fill="#FC6D26"/>
  <path d="M108.762 5.13224C110.031 5.13224 111.06 4.13255 111.06 2.89937C111.06 1.66619 110.031 0.666504 108.762 0.666504C107.492 0.666504 106.463 1.66619 106.463 2.89937C106.463 4.13255 107.492 5.13224 108.762 5.13224Z" fill="#AC7FFF"/>
  <path d="M104.131 18.7961C105.401 18.7961 106.43 17.7964 106.43 16.5632C106.43 15.33 105.401 14.3303 104.131 14.3303C102.862 14.3303 101.833 15.33 101.833 16.5632C101.833 17.7964 102.862 18.7961 104.131 18.7961Z" fill="#AC7FFF"/>
  <path d="M108.762 37.4922C110.031 37.4922 111.06 36.4925 111.06 35.2594C111.06 34.0262 110.031 33.0265 108.762 33.0265C107.492 33.0265 106.463 34.0262 106.463 35.2594C106.463 36.4925 107.492 37.4922 108.762 37.4922Z" fill="#AC7FFF"/>
  <path d="M110.46 26.9944C111.73 26.9944 112.759 25.9947 112.759 24.7615C112.759 23.5283 111.73 22.5286 110.46 22.5286C109.191 22.5286 108.162 23.5283 108.162 24.7615C108.162 25.9947 109.191 26.9944 110.46 26.9944Z" fill="#AC7FFF"/>
  <path d="M142.273 5.13224C143.542 5.13224 144.571 4.13255 144.571 2.89937C144.571 1.66619 143.542 0.666504 142.273 0.666504C141.003 0.666504 139.974 1.66619 139.974 2.89937C139.974 4.13255 141.003 5.13224 142.273 5.13224Z" fill="#AC7FFF"/>
  <path d="M146.903 18.7961C148.172 18.7961 149.201 17.7964 149.201 16.5632C149.201 15.33 148.172 14.3303 146.903 14.3303C145.634 14.3303 144.604 15.33 144.604 16.5632C144.604 17.7964 145.634 18.7961 146.903 18.7961Z" fill="#AC7FFF"/>
  <path d="M142.273 37.4922C143.542 37.4922 144.571 36.4925 144.571 35.2594C144.571 34.0262 143.542 33.0265 142.273 33.0265C141.003 33.0265 139.974 34.0262 139.974 35.2594C139.974 36.4925 141.003 37.4922 142.273 37.4922Z" fill="#AC7FFF"/>
  <path d="M140.574 26.9944C141.843 26.9944 142.872 25.9947 142.872 24.7615C142.872 23.5283 141.843 22.5286 140.574 22.5286C139.304 22.5286 138.275 23.5283 138.275 24.7615C138.275 25.9947 139.304 26.9944 140.574 26.9944Z" fill="#AC7FFF"/>
  <path d="M125.517 26.9611C125.384 26.9611 125.251 26.9277 125.117 26.8278L117.422 21.3956C116.956 21.0623 116.789 20.4957 116.956 19.9959L119.588 12.0975C119.721 11.6976 120.087 11.431 120.52 11.431C120.92 11.431 121.287 11.6976 121.42 12.0975L123.019 16.8965H127.915L129.514 12.0975C129.648 11.6976 130.014 11.431 130.414 11.431C130.814 11.431 131.213 11.6976 131.347 12.0642L133.978 19.9959C134.145 20.5291 133.978 21.0956 133.512 21.3956L125.817 26.8278C125.784 26.8944 125.65 26.9611 125.517 26.9611ZM118.255 20.3624L125.517 25.4614L132.746 20.3624L130.48 13.5305L129.081 17.763C128.981 18.0296 128.748 18.2296 128.448 18.2296H122.619C122.319 18.2296 122.086 18.0629 121.986 17.763L120.554 13.5305L118.255 20.3624Z" fill="#380D75"/>
  <path d="M117.889 17.1964L106.43 17.0964C106.063 17.0964 105.763 16.7965 105.763 16.4299C105.763 16.0633 106.063 15.7634 106.43 15.7634L116.623 15.83L109.694 5.53218C109.494 5.23224 109.561 4.799 109.861 4.59904C110.161 4.39908 110.594 4.46573 110.793 4.76567L118.422 16.13C118.555 16.3299 118.588 16.5965 118.455 16.8298C118.355 17.0631 118.122 17.1964 117.889 17.1964Z" fill="#380D75"/>
  <path d="M108.762 5.83212C107.129 5.83212 105.797 4.53239 105.797 2.93272C105.797 1.33305 107.129 0.0333252 108.762 0.0333252C110.394 0.0333252 111.726 1.33305 111.726 2.93272C111.726 4.53239 110.394 5.83212 108.762 5.83212ZM108.762 1.33305C107.862 1.33305 107.129 2.03291 107.129 2.89939C107.129 3.76588 107.862 4.46574 108.762 4.46574C109.661 4.46574 110.394 3.76588 110.394 2.89939C110.394 2.03291 109.661 1.33305 108.762 1.33305Z" fill="#380D75"/>
  <path d="M104.131 19.4959C102.499 19.4959 101.167 18.1962 101.167 16.5965C101.167 14.9969 102.499 13.6971 104.131 13.6971C105.763 13.6971 107.096 14.9969 107.096 16.5965C107.096 18.1962 105.763 19.4959 104.131 19.4959ZM104.131 14.9969C103.232 14.9969 102.499 15.6967 102.499 16.5632C102.499 17.4297 103.232 18.1296 104.131 18.1296C105.031 18.1296 105.763 17.4297 105.763 16.5632C105.763 15.6967 105.031 14.9969 104.131 14.9969Z" fill="#380D75"/>
  <path d="M108.762 38.1587C107.129 38.1587 105.797 36.859 105.797 35.2593C105.797 33.6597 107.129 32.3599 108.762 32.3599C110.394 32.3599 111.726 33.6597 111.726 35.2593C111.726 36.859 110.394 38.1587 108.762 38.1587ZM108.762 33.6597C107.862 33.6597 107.129 34.3595 107.129 35.226C107.129 36.0925 107.862 36.7923 108.762 36.7923C109.661 36.7923 110.394 36.0925 110.394 35.226C110.394 34.3595 109.661 33.6597 108.762 33.6597Z" fill="#380D75"/>
  <path d="M110.46 27.6609C108.828 27.6609 107.496 26.3612 107.496 24.7615C107.496 23.1619 108.828 21.8621 110.46 21.8621C112.093 21.8621 113.425 23.1619 113.425 24.7615C113.425 26.3612 112.093 27.6609 110.46 27.6609ZM110.46 23.1952C109.561 23.1952 108.828 23.895 108.828 24.7615C108.828 25.628 109.561 26.3279 110.46 26.3279C111.36 26.3279 112.093 25.628 112.093 24.7615C112.093 23.895 111.36 23.1952 110.46 23.1952Z" fill="#380D75"/>
  <path d="M110.46 34.3929C110.294 34.3929 110.127 34.3262 109.994 34.1929C109.728 33.9263 109.728 33.4931 109.994 33.2598L120.487 23.0286C120.754 22.762 121.187 22.762 121.42 23.0286C121.686 23.2952 121.686 23.7284 121.42 23.9617L110.927 34.2262C110.794 34.3262 110.627 34.3929 110.46 34.3929Z" fill="#380D75"/>
  <path d="M114.857 30.0937C114.658 30.0937 114.491 30.0271 114.358 29.8937L111.66 27.0277C111.393 26.7611 111.426 26.3278 111.693 26.0945C111.959 25.8279 112.392 25.8613 112.626 26.1279L114.857 28.494L116.656 26.7277C116.923 26.4611 117.356 26.4611 117.589 26.7277C117.855 26.9943 117.855 27.4276 117.589 27.6609L115.291 29.8937C115.224 30.0271 115.057 30.0937 114.857 30.0937Z" fill="#380D75"/>
  <path d="M133.145 17.1964C132.912 17.1964 132.679 17.0631 132.546 16.8298C132.413 16.5965 132.446 16.3633 132.579 16.13L140.207 4.76568C140.407 4.46574 140.84 4.36576 141.14 4.59904C141.44 4.799 141.54 5.23225 141.307 5.53218L134.378 15.83L144.571 15.7634C144.938 15.7634 145.237 16.0633 145.237 16.4299C145.237 16.7965 144.938 17.0964 144.571 17.0964L133.145 17.1964Z" fill="#380D75"/>
  <path d="M142.273 5.83212C140.64 5.83212 139.308 4.53239 139.308 2.93272C139.308 1.33305 140.64 0.0333252 142.273 0.0333252C143.905 0.0333252 145.237 1.33305 145.237 2.93272C145.237 4.53239 143.905 5.83212 142.273 5.83212ZM142.273 1.33305C141.373 1.33305 140.64 2.03291 140.64 2.89939C140.64 3.76588 141.373 4.46574 142.273 4.46574C143.172 4.46574 143.905 3.76588 143.905 2.89939C143.905 2.03291 143.172 1.33305 142.273 1.33305Z" fill="#380D75"/>
  <path d="M146.903 19.4959C145.271 19.4959 143.938 18.1962 143.938 16.5965C143.938 14.9969 145.271 13.6971 146.903 13.6971C148.535 13.6971 149.868 14.9969 149.868 16.5965C149.868 18.1962 148.535 19.4959 146.903 19.4959ZM146.903 14.9969C146.004 14.9969 145.271 15.6967 145.271 16.5632C145.271 17.4297 146.004 18.1296 146.903 18.1296C147.802 18.1296 148.535 17.4297 148.535 16.5632C148.535 15.6967 147.802 14.9969 146.903 14.9969Z" fill="#380D75"/>
  <path d="M142.273 38.1587C140.64 38.1587 139.308 36.859 139.308 35.2593C139.308 33.6597 140.64 32.3599 142.273 32.3599C143.905 32.3599 145.237 33.6597 145.237 35.2593C145.237 36.859 143.905 38.1587 142.273 38.1587ZM142.273 33.6597C141.373 33.6597 140.64 34.3595 140.64 35.226C140.64 36.0925 141.373 36.7923 142.273 36.7923C143.172 36.7923 143.905 36.0925 143.905 35.226C143.905 34.3595 143.172 33.6597 142.273 33.6597Z" fill="#380D75"/>
  <path d="M140.574 27.6609C138.942 27.6609 137.609 26.3612 137.609 24.7615C137.609 23.1619 138.942 21.8621 140.574 21.8621C142.206 21.8621 143.539 23.1619 143.539 24.7615C143.539 26.3612 142.206 27.6609 140.574 27.6609ZM140.574 23.1952C139.674 23.1952 138.942 23.895 138.942 24.7615C138.942 25.628 139.674 26.3279 140.574 26.3279C141.473 26.3279 142.206 25.628 142.206 24.7615C142.206 23.895 141.473 23.1952 140.574 23.1952Z" fill="#380D75"/>
  <path d="M140.574 34.3929C140.407 34.3929 140.241 34.3262 140.107 34.1929L129.581 23.9617C129.314 23.6951 129.314 23.2952 129.581 23.0286C129.847 22.762 130.247 22.762 130.514 23.0286L141.007 33.2598C141.273 33.5264 141.273 33.9263 141.007 34.1929C140.907 34.3262 140.74 34.3929 140.574 34.3929Z" fill="#380D75"/>
  <path d="M136.143 30.0938C135.977 30.0938 135.81 30.0271 135.677 29.8938L133.379 27.6609C133.112 27.3943 133.112 26.9944 133.379 26.7278C133.645 26.4612 134.045 26.4612 134.311 26.7278L136.11 28.4941L138.342 26.1279C138.608 25.8613 139.008 25.8613 139.275 26.0946C139.541 26.3612 139.541 26.7611 139.308 27.0277L136.61 29.8938C136.51 30.0271 136.343 30.0938 136.143 30.0938C136.177 30.0938 136.177 30.0938 136.143 30.0938Z" fill="#380D75"/>
  <path d="M216.357 56.2883C217.608 56.2883 218.622 55.2737 218.622 54.0221C218.622 52.7705 217.608 51.7559 216.357 51.7559C215.106 51.7559 214.092 52.7705 214.092 54.0221C214.092 55.2737 215.106 56.2883 216.357 56.2883Z" fill="#FCA121"/>
  <path d="M216.357 62.6536C218.256 62.6536 219.988 61.9871 221.354 60.8873C220.121 59.4876 218.356 58.6211 216.357 58.6211C214.358 58.6211 212.593 59.4876 211.36 60.8873C212.726 61.9871 214.492 62.6536 216.357 62.6536Z" fill="#FCA121"/>
  <path d="M235.578 63.1202C236.829 63.1202 237.843 62.1056 237.843 60.854C237.843 59.6024 236.829 58.5878 235.578 58.5878C234.327 58.5878 233.312 59.6024 233.312 60.854C233.312 62.1056 234.327 63.1202 235.578 63.1202Z" fill="#FC6D26"/>
  <path d="M235.578 69.4855C237.476 69.4855 239.208 68.819 240.574 67.7192C239.342 66.3195 237.576 65.453 235.578 65.453C233.579 65.453 231.813 66.3195 230.581 67.7192C231.947 68.819 233.679 69.4855 235.578 69.4855Z" fill="#FC6D26"/>
  <path d="M225.318 81.8163C222.12 81.8163 219.521 79.2168 219.521 76.0175V73.2181H231.114V76.0175C231.08 79.2502 228.516 81.8163 225.318 81.8163Z" fill="#AC7FFF"/>
  <path d="M225.318 82.4828C221.787 82.4828 218.922 79.6168 218.922 76.0842V72.7182C218.922 72.185 218.655 71.6518 218.222 71.3851C215.957 69.8855 214.192 67.6859 213.259 65.1531C213.126 64.8198 213.292 64.4199 213.659 64.2866C213.992 64.1533 214.392 64.32 214.525 64.6865C215.391 66.9527 216.957 68.919 218.988 70.2854C219.821 70.8186 220.288 71.7517 220.288 72.7515V76.1175C220.288 78.9169 222.553 81.1831 225.351 81.1831C228.149 81.1831 230.414 78.9169 230.414 76.1175V72.7515C230.414 72.085 230.614 71.4851 231.047 70.9519C231.28 70.652 231.68 70.6186 231.98 70.8186C232.28 71.0519 232.313 71.4518 232.113 71.7517C231.88 72.0517 231.78 72.3849 231.78 72.7515V76.1175C231.713 79.6168 228.815 82.4828 225.318 82.4828Z" fill="#380D75"/>
  <path d="M235.578 54.622C235.344 54.622 235.145 54.522 235.011 54.3221C232.746 50.8228 228.915 48.8565 224.751 49.0565C223.686 49.0898 222.62 49.3231 221.587 49.6564C221.254 49.7897 220.854 49.5897 220.754 49.2565C220.621 48.9232 220.821 48.5233 221.154 48.4233C222.286 48.0234 223.486 47.8234 224.685 47.7568C229.248 47.5568 233.646 49.7897 236.111 53.6222C236.31 53.9221 236.211 54.3554 235.911 54.5553C235.844 54.5887 235.711 54.622 235.578 54.622Z" fill="#380D75"/>
  <path d="M231.047 73.4181H219.588C219.222 73.4181 218.922 73.1181 218.922 72.7515C218.922 72.385 219.222 72.085 219.588 72.085H231.047C231.414 72.085 231.713 72.385 231.713 72.7515C231.713 73.1181 231.414 73.4181 231.047 73.4181Z" fill="#380D75"/>
  <path d="M231.88 76.4507H218.722C218.355 76.4507 218.056 76.1508 218.056 75.7842C218.056 75.4176 218.355 75.1177 218.722 75.1177H231.88C232.246 75.1177 232.546 75.4176 232.546 75.7842C232.546 76.1508 232.246 76.4507 231.88 76.4507Z" fill="#380D75"/>
  <path d="M231.314 79.4834H219.488C219.122 79.4834 218.822 79.1835 218.822 78.8169C218.822 78.4503 219.122 78.1504 219.488 78.1504H231.314C231.68 78.1504 231.98 78.4503 231.98 78.8169C231.98 79.1835 231.68 79.4834 231.314 79.4834Z" fill="#380D75"/>
  <path d="M221.22 61.4206C221.054 61.4206 220.921 61.3539 220.787 61.254C219.588 60.1875 218.022 59.5876 216.39 59.5876C214.758 59.5876 213.192 60.1875 211.993 61.254C211.727 61.4872 211.294 61.4872 211.06 61.1873C210.827 60.9207 210.827 60.4875 211.127 60.2542C212.593 58.9544 214.458 58.2546 216.424 58.2546C218.389 58.2546 220.254 58.9544 221.72 60.2542C221.987 60.4875 222.02 60.9207 221.787 61.1873C221.587 61.3539 221.387 61.4206 221.22 61.4206Z" fill="#380D75"/>
  <path d="M216.357 57.0548C214.825 57.0548 213.559 55.7884 213.559 54.2554C213.559 52.7223 214.825 51.4559 216.357 51.4559C217.889 51.4559 219.155 52.7223 219.155 54.2554C219.155 55.7884 217.923 57.0548 216.357 57.0548ZM216.357 52.789C215.558 52.789 214.891 53.4555 214.891 54.2554C214.891 55.0552 215.558 55.7217 216.357 55.7217C217.156 55.7217 217.823 55.0552 217.823 54.2554C217.823 53.4555 217.19 52.789 216.357 52.789Z" fill="#380D75"/>
  <path d="M216.39 63.3202C211.993 63.3202 208.396 59.7209 208.396 55.3218C208.396 50.9227 211.993 47.3235 216.39 47.3235C220.787 47.3235 224.385 50.9227 224.385 55.3218C224.385 59.7209 220.821 63.3202 216.39 63.3202ZM216.39 48.6565C212.726 48.6565 209.728 51.6559 209.728 55.3218C209.728 58.9877 212.726 61.9871 216.39 61.9871C220.054 61.9871 223.052 58.9877 223.052 55.3218C223.052 51.6559 220.054 48.6565 216.39 48.6565Z" fill="#380D75"/>
  <path d="M240.374 68.0525C240.208 68.0525 240.075 67.9858 239.941 67.8859C238.742 66.8194 237.176 66.2195 235.544 66.2195C233.912 66.2195 232.346 66.8194 231.147 67.8859C230.881 68.1192 230.448 68.1192 230.214 67.8192C229.981 67.5526 229.981 67.1194 230.281 66.8861C231.747 65.5863 233.612 64.8865 235.578 64.8865C237.543 64.8865 239.408 65.5863 240.874 66.8861C241.141 67.1194 241.174 67.5526 240.941 67.8192C240.741 67.9858 240.574 68.0525 240.374 68.0525Z" fill="#380D75"/>
  <path d="M235.544 63.6201C234.012 63.6201 232.746 62.3537 232.746 60.8207C232.746 59.2876 234.012 58.0212 235.544 58.0212C237.077 58.0212 238.342 59.2876 238.342 60.8207C238.342 62.3537 237.077 63.6201 235.544 63.6201ZM235.544 59.3543C234.745 59.3543 234.079 60.0208 234.079 60.8207C234.079 61.6205 234.745 62.287 235.544 62.287C236.344 62.287 237.01 61.6205 237.01 60.8207C237.01 60.0208 236.344 59.3543 235.544 59.3543Z" fill="#380D75"/>
  <path d="M235.577 69.9521C231.18 69.9521 227.583 66.3529 227.583 61.9538C227.583 57.5547 231.18 53.9554 235.577 53.9554C239.975 53.9554 243.572 57.5547 243.572 61.9538C243.572 66.3529 239.975 69.9521 235.577 69.9521ZM235.577 55.2885C231.913 55.2885 228.915 58.2879 228.915 61.9538C228.915 65.6197 231.913 68.6191 235.577 68.6191C239.242 68.6191 242.24 65.6197 242.24 61.9538C242.24 58.2879 239.242 55.2885 235.577 55.2885Z" fill="#380D75"/>
  <path d="M215.891 21.8954C215.891 22.9618 215.025 23.795 213.992 23.795C212.959 23.795 212.093 22.9285 212.093 21.8954C212.093 20.8289 212.959 19.9958 213.992 19.9958C214.825 19.9958 215.524 20.529 215.791 21.2622C215.857 21.4288 215.891 21.6621 215.891 21.8954Z" fill="#18A3FF"/>
  <path d="M221.387 27.1277L224.052 28.9606C225.151 29.6938 225.284 31.2602 224.352 32.1933C223.419 33.1264 221.853 32.9931 221.087 31.8934L219.355 28.7274" fill="#AC7FFF"/>
  <path d="M213.992 31.2601C208.829 31.2601 204.598 27.061 204.598 21.8621C204.598 17.4297 207.763 13.5638 212.093 12.664C212.726 12.5307 213.359 12.4641 213.992 12.4641C219.155 12.4641 223.386 16.6632 223.386 21.8621C223.386 27.061 219.155 31.2601 213.992 31.2601ZM213.992 13.8304C213.459 13.8304 212.893 13.8971 212.36 13.9971C208.629 14.7636 205.931 18.0629 205.931 21.8954C205.931 26.3278 209.528 29.9604 213.992 29.9604C218.422 29.9604 222.053 26.3612 222.053 21.8954C222.02 17.4297 218.422 13.8304 213.992 13.8304Z" fill="#380D75"/>
  <path d="M222.853 33.493C222.786 33.493 222.686 33.493 222.62 33.493C221.787 33.4263 221.054 32.9931 220.588 32.2932C220.588 32.2599 220.554 32.2599 220.554 32.2266L219.888 31.0268C219.722 30.6936 219.822 30.2936 220.155 30.127C220.488 29.9604 220.888 30.0604 221.054 30.3936L221.687 31.56C221.92 31.8933 222.32 32.1266 222.753 32.1599C223.186 32.1932 223.619 32.0266 223.919 31.7267C224.219 31.4267 224.385 30.9935 224.319 30.5602C224.285 30.127 224.052 29.7271 223.686 29.4938L221.021 27.6608C220.721 27.4609 220.654 27.0276 220.854 26.7277C221.054 26.4278 221.487 26.3611 221.787 26.5611L224.452 28.394C225.118 28.8606 225.584 29.5938 225.651 30.4269C225.718 31.2601 225.451 32.0599 224.852 32.6598C224.285 33.193 223.586 33.493 222.853 33.493Z" fill="#380D75"/>
  <path d="M213.992 26.6278C211.693 26.6278 209.495 24.9615 208.196 22.1954C208.029 21.8621 208.162 21.4622 208.496 21.2956C208.829 21.1289 209.228 21.2622 209.395 21.5955C210.494 23.895 212.226 25.2947 213.992 25.2947C215.691 25.2947 217.356 24.0283 218.456 21.8954C217.356 19.7625 215.691 18.4961 213.992 18.4961C212.393 18.4961 211.227 19.5293 210.528 20.3957C210.294 20.6957 209.861 20.729 209.595 20.4957C209.295 20.2624 209.262 19.8292 209.495 19.5626C210.761 18.0296 212.36 17.1964 213.992 17.1964C216.29 17.1964 218.456 18.8627 219.788 21.6288C219.888 21.7955 219.888 22.0287 219.788 22.1954C218.456 24.9615 216.29 26.6278 213.992 26.6278Z" fill="#380D75"/>
  <path d="M213.992 24.4616C212.56 24.4616 211.427 23.2951 211.427 21.8954C211.427 20.4957 212.593 19.3293 213.992 19.3293C215.058 19.3293 216.024 19.9958 216.424 21.0289C216.524 21.3289 216.59 21.6288 216.59 21.9287C216.557 23.2951 215.391 24.4616 213.992 24.4616ZM213.992 20.629C213.292 20.629 212.759 21.1956 212.759 21.8621C212.759 22.5286 213.326 23.0952 213.992 23.0952C214.658 23.0952 215.224 22.5286 215.224 21.8621C215.224 21.7288 215.191 21.5622 215.158 21.4288C214.958 20.9623 214.492 20.629 213.992 20.629Z" fill="#380D75"/>
  <path d="M34.3107 25.2947C37.0703 25.2947 39.3074 23.0566 39.3074 20.2958C39.3074 17.5349 37.0703 15.2968 34.3107 15.2968C31.5511 15.2968 29.314 17.5349 29.314 20.2958C29.314 23.0566 31.5511 25.2947 34.3107 25.2947Z" fill="#38F2AF"/>
  <path d="M38.8409 34.6262C38.741 34.6262 38.6077 34.5928 38.5078 34.5595L34.3106 32.2267L30.1134 34.5595C29.9135 34.6595 29.647 34.6595 29.4471 34.5595C29.2473 34.4595 29.114 34.2262 29.114 33.993V28.8274C29.114 28.4608 29.4138 28.1608 29.7802 28.1608C30.1467 28.1608 30.4465 28.4608 30.4465 28.8274V32.8265L33.9775 30.8603C34.1773 30.7603 34.4105 30.7603 34.6104 30.8603L38.1414 32.8265V26.8278C38.1414 26.4612 38.4412 26.1613 38.8076 26.1613C39.174 26.1613 39.4738 26.4612 39.4738 26.8278V33.9596C39.4738 34.1929 39.3406 34.4262 39.1407 34.5262C39.0741 34.5928 38.9742 34.6262 38.8409 34.6262Z" fill="#380D75"/>
  <path d="M33.4778 22.662C33.3113 22.662 33.1447 22.5953 33.0115 22.462L31.779 21.2289C31.5125 20.9623 31.5125 20.5624 31.779 20.2958C32.0455 20.0292 32.4452 20.0292 32.7117 20.2958L33.4778 21.0623L35.9096 18.6295C36.1761 18.3629 36.5758 18.3629 36.8423 18.6295C37.1088 18.8961 37.1088 19.296 36.8423 19.5626L33.9109 22.4953C33.811 22.5953 33.6444 22.662 33.4778 22.662Z" fill="#380D75"/>
  <path d="M34.3106 29.2273C33.4445 29.2273 32.7783 28.6607 32.212 28.1608C31.9122 27.8942 31.6124 27.6276 31.3459 27.5276C31.0461 27.3943 30.6464 27.361 30.2133 27.3277C29.4472 27.261 28.6144 27.1944 28.0148 26.6278C27.4152 26.0279 27.3486 25.1948 27.3152 24.4283C27.2819 23.995 27.2486 23.5951 27.1154 23.2952C27.0154 23.0286 26.749 22.7286 26.4825 22.4287C25.9828 21.8621 25.4165 21.1956 25.4165 20.3291C25.4165 19.4626 25.9828 18.7961 26.4825 18.2296C26.749 17.9296 27.0154 17.6297 27.1154 17.3631C27.2486 17.0631 27.2819 16.6632 27.3152 16.23C27.3819 15.4635 27.4485 14.6303 28.0148 14.0304C28.6144 13.4306 29.4472 13.3639 30.2133 13.3306C30.6464 13.2972 31.0461 13.2639 31.3459 13.1306C31.6124 13.0306 31.9122 12.764 32.212 12.4974C32.7783 11.9975 33.4445 11.431 34.3106 11.431C35.1767 11.431 35.8429 11.9975 36.4092 12.4974C36.709 12.764 37.0088 13.0306 37.2753 13.1306C37.5751 13.2639 37.9749 13.2972 38.4079 13.3306C39.1741 13.3972 40.0069 13.4639 40.6065 14.0304C41.2061 14.6303 41.2727 15.4635 41.306 16.23C41.3393 16.6632 41.3726 17.0631 41.5059 17.3631C41.6058 17.6297 41.8723 17.9296 42.1388 18.2296C42.6385 18.7961 43.2047 19.4626 43.2047 20.3291C43.2047 21.1956 42.6385 21.8621 42.1388 22.4287C41.8723 22.7286 41.6058 23.0286 41.5059 23.2952C41.3726 23.5951 41.3393 23.995 41.306 24.4283C41.2394 25.1948 41.1728 26.0279 40.6065 26.6278C40.0402 27.2277 39.1741 27.2943 38.4079 27.3277C37.9749 27.361 37.5751 27.3943 37.2753 27.5276C37.0088 27.6276 36.709 27.8942 36.4092 28.1608C35.8429 28.6607 35.21 29.2273 34.3106 29.2273ZM34.3106 12.6974C33.9442 12.6974 33.5112 13.064 33.0781 13.4306C32.7117 13.7638 32.3119 14.0971 31.8456 14.297C31.3459 14.497 30.8129 14.5303 30.3133 14.5637C29.7803 14.597 29.214 14.6636 28.9475 14.8969C28.7143 15.1302 28.6477 15.6967 28.6144 16.2633C28.5811 16.7965 28.5478 17.3297 28.3479 17.7963C28.148 18.2629 27.8149 18.6628 27.4818 19.0294C27.0821 19.4626 26.749 19.8959 26.749 20.2625C26.749 20.6291 27.1154 21.0623 27.4818 21.4955C27.8149 21.8621 28.148 22.262 28.3479 22.7286C28.5478 23.2285 28.5811 23.7617 28.6144 24.2616C28.6477 24.7949 28.7143 25.3614 28.9475 25.628C29.1807 25.8613 29.747 25.9279 30.3133 25.9613C30.8462 25.9946 31.3792 26.0279 31.8456 26.2279C32.3119 26.4278 32.7117 26.7611 33.0781 27.0944C33.5112 27.4943 33.9442 27.8276 34.3106 27.8276C34.677 27.8276 35.1101 27.461 35.5431 27.0944C35.9096 26.7611 36.3093 26.4278 36.7757 26.2279C37.2753 26.0279 37.8083 25.9946 38.308 25.9613C38.841 25.9279 39.4073 25.8613 39.6737 25.628C39.9069 25.3947 39.9735 24.8282 40.0069 24.2616C40.0402 23.7284 40.0735 23.1952 40.2733 22.7286C40.4732 22.262 40.8063 21.8621 41.1394 21.4955C41.5392 21.0623 41.8723 20.6291 41.8723 20.2625C41.8723 19.8959 41.5059 19.4626 41.1394 19.0294C40.8063 18.6628 40.4732 18.2629 40.2733 17.7963C40.0735 17.2964 40.0402 16.7632 40.0069 16.2633C39.9735 15.7301 39.9069 15.1635 39.6737 14.8969C39.4406 14.6636 38.8743 14.597 38.308 14.5637C37.775 14.5303 37.242 14.497 36.7757 14.297C36.3093 14.0971 35.9096 13.7638 35.5431 13.4306C35.1101 13.064 34.7104 12.6974 34.3106 12.6974Z" fill="#380D75"/>
  <g opacity="0.4">
    <g opacity="0.4">
      <g opacity="0.4">
        <path opacity="0.4" d="M211.127 101.612C210.76 101.612 210.461 101.312 210.461 100.946V96.8798C210.461 96.5132 210.76 96.2133 211.127 96.2133C211.493 96.2133 211.793 96.5132 211.793 96.8798V100.946C211.793 101.312 211.493 101.612 211.127 101.612Z" fill="#AFAAE5"/>
      </g>
      <g opacity="0.4">
        <path opacity="0.4" d="M213.159 99.5792H209.095C208.729 99.5792 208.429 99.2793 208.429 98.9127C208.429 98.5461 208.729 98.2462 209.095 98.2462H213.159C213.525 98.2462 213.825 98.5461 213.825 98.9127C213.825 99.2793 213.525 99.5792 213.159 99.5792Z" fill="#AFAAE5"/>
      </g>
    </g>
    <g opacity="0.4">
      <g opacity="0.4">
        <path opacity="0.4" d="M198.369 35.526C198.002 35.526 197.702 35.226 197.702 34.8594V30.7936C197.702 30.427 198.002 30.1271 198.369 30.1271C198.735 30.1271 199.035 30.427 199.035 30.7936V34.8594C199.035 35.226 198.735 35.526 198.369 35.526Z" fill="#AFAAE5"/>
      </g>
      <g opacity="0.4">
        <path opacity="0.4" d="M200.401 33.493H196.337C195.97 33.493 195.67 33.1931 195.67 32.8265C195.67 32.4599 195.97 32.16 196.337 32.16H200.401C200.767 32.16 201.067 32.4599 201.067 32.8265C201.067 33.1931 200.767 33.493 200.401 33.493Z" fill="#AFAAE5"/>
      </g>
    </g>
    <g opacity="0.4">
      <g opacity="0.4">
        <path opacity="0.4" d="M91.0063 11.9642C90.6399 11.9642 90.3401 11.6642 90.3401 11.2977V7.23184C90.3401 6.86525 90.6399 6.56531 91.0063 6.56531C91.3727 6.56531 91.6725 6.86525 91.6725 7.23184V11.2977C91.6725 11.6642 91.3727 11.9642 91.0063 11.9642Z" fill="#AFAAE5"/>
      </g>
      <g opacity="0.4">
        <path opacity="0.4" d="M93.0383 9.93126H88.9743C88.6079 9.93126 88.3081 9.63132 88.3081 9.26473C88.3081 8.89814 88.6079 8.59821 88.9743 8.59821H93.0383C93.4047 8.59821 93.7045 8.89814 93.7045 9.26473C93.7045 9.63132 93.4047 9.93126 93.0383 9.93126Z" fill="#AFAAE5"/>
      </g>
    </g>
    <g opacity="0.4">
      <g opacity="0.4">
        <path opacity="0.4" d="M245.238 137.771C244.871 137.771 244.572 137.471 244.572 137.105V133.039C244.572 132.672 244.871 132.372 245.238 132.372C245.604 132.372 245.904 132.672 245.904 133.039V137.105C245.904 137.471 245.604 137.771 245.238 137.771Z" fill="#AFAAE5"/>
      </g>
      <g opacity="0.4">
        <path opacity="0.4" d="M247.27 135.738H243.206C242.839 135.738 242.54 135.438 242.54 135.072C242.54 134.705 242.839 134.405 243.206 134.405H247.27C247.636 134.405 247.936 134.705 247.936 135.072C247.936 135.438 247.67 135.738 247.27 135.738Z" fill="#AFAAE5"/>
      </g>
    </g>
    <g opacity="0.4">
      <path opacity="0.4" d="M162.059 19.096C161.06 19.096 160.227 18.2629 160.227 17.2631C160.227 16.2633 161.06 15.4301 162.059 15.4301C163.059 15.4301 163.892 16.2633 163.892 17.2631C163.858 18.2629 163.059 19.096 162.059 19.096ZM162.059 16.7632C161.793 16.7632 161.56 16.9965 161.56 17.2631C161.56 17.5297 161.793 17.763 162.059 17.763C162.326 17.763 162.559 17.5297 162.559 17.2631C162.559 16.9965 162.326 16.7632 162.059 16.7632Z" fill="#AFAAE5"/>
    </g>
    <g opacity="0.4">
      <path opacity="0.4" d="M248.802 84.549C247.803 84.549 246.97 83.7159 246.97 82.7161C246.97 81.7163 247.803 80.8831 248.802 80.8831C249.801 80.8831 250.634 81.7163 250.634 82.7161C250.634 83.7159 249.801 84.549 248.802 84.549ZM248.802 82.2495C248.536 82.2495 248.302 82.4828 248.302 82.7494C248.302 83.016 248.536 83.2493 248.802 83.2493C249.069 83.2493 249.302 83.016 249.302 82.7494C249.302 82.4828 249.069 82.2495 248.802 82.2495Z" fill="#AFAAE5"/>
    </g>
    <g opacity="0.4">
      <path opacity="0.4" d="M129.481 39.3918C129.314 39.3918 129.148 39.3252 129.015 39.1918C128.881 39.0585 128.815 38.8919 128.815 38.7253C128.815 38.692 128.815 38.6253 128.815 38.592C128.815 38.5587 128.848 38.5253 128.848 38.4587C128.881 38.4253 128.881 38.392 128.915 38.3587C128.948 38.3254 128.981 38.292 128.981 38.2587C129.248 38.0254 129.681 37.9921 129.914 38.2587C129.947 38.292 129.981 38.3254 129.981 38.3587C130.014 38.392 130.014 38.4253 130.047 38.4587C130.081 38.492 130.081 38.5253 130.081 38.592C130.081 38.6253 130.081 38.692 130.081 38.7253C130.081 38.8919 130.014 39.0585 129.881 39.1918C129.814 39.3252 129.647 39.3918 129.481 39.3918Z" fill="#AFAAE5"/>
    </g>
    <g opacity="0.4">
      <path opacity="0.4" d="M205.264 71.1851C205.098 71.1851 204.931 71.1185 204.798 70.9852C204.765 70.9519 204.731 70.9185 204.731 70.8852C204.698 70.8519 204.698 70.8185 204.665 70.7852C204.631 70.7519 204.631 70.7186 204.631 70.6519C204.631 70.6186 204.631 70.5519 204.631 70.5186C204.631 70.352 204.698 70.152 204.831 70.052C205.098 69.8188 205.531 69.8188 205.764 70.052C205.897 70.1853 205.964 70.352 205.964 70.5186C205.964 70.5519 205.964 70.6186 205.964 70.6519C205.964 70.6852 205.931 70.7186 205.931 70.7852C205.897 70.8185 205.897 70.8519 205.864 70.8852C205.831 70.9185 205.797 70.9519 205.797 70.9852C205.597 71.1185 205.431 71.1851 205.264 71.1851Z" fill="#AFAAE5"/>
    </g>
    <g opacity="0.4">
      <path opacity="0.4" d="M233.479 22.662C233.445 22.662 233.379 22.662 233.345 22.662C233.312 22.662 233.279 22.6287 233.212 22.6287C233.179 22.5953 233.146 22.5953 233.112 22.562C233.079 22.5287 233.046 22.4953 233.012 22.462C232.879 22.3287 232.812 22.1621 232.812 21.9955C232.812 21.8288 232.879 21.6622 233.012 21.5289C233.046 21.4956 233.079 21.4622 233.112 21.4622C233.146 21.4289 233.179 21.4289 233.212 21.3956C233.246 21.3956 233.279 21.3623 233.345 21.3623C233.579 21.3289 233.779 21.3956 233.945 21.5289C234.078 21.6622 234.145 21.8288 234.145 21.9955C234.145 22.1621 234.078 22.3287 233.945 22.462C233.812 22.5953 233.645 22.662 233.479 22.662Z" fill="#AFAAE5"/>
    </g>
    <g opacity="0.4">
      <path opacity="0.4" d="M232.08 152.502C232.046 152.502 231.98 152.502 231.947 152.502C231.913 152.502 231.847 152.468 231.813 152.468C231.78 152.468 231.747 152.435 231.713 152.402C231.68 152.368 231.647 152.335 231.613 152.335C231.48 152.202 231.414 152.035 231.414 151.868C231.414 151.835 231.414 151.768 231.414 151.735C231.414 151.702 231.447 151.635 231.447 151.602C231.447 151.568 231.48 151.535 231.514 151.502C231.547 151.468 231.58 151.435 231.58 151.402C231.613 151.368 231.647 151.335 231.68 151.335C231.713 151.302 231.747 151.302 231.78 151.268C231.813 151.268 231.847 151.235 231.913 151.235C231.98 151.202 232.08 151.202 232.18 151.235C232.213 151.235 232.246 151.268 232.313 151.268C232.38 151.268 232.38 151.302 232.446 151.335C232.48 151.368 232.513 151.402 232.546 151.402C232.579 151.435 232.613 151.468 232.613 151.502C232.646 151.535 232.646 151.568 232.679 151.602C232.713 151.635 232.713 151.668 232.713 151.735C232.713 151.768 232.713 151.835 232.713 151.868C232.713 152.035 232.646 152.202 232.513 152.335C232.48 152.368 232.446 152.402 232.413 152.402C232.38 152.435 232.346 152.435 232.28 152.468C232.246 152.502 232.213 152.502 232.146 152.502C232.146 152.502 232.113 152.502 232.08 152.502Z" fill="#AFAAE5"/>
    </g>
    <g opacity="0.4">
      <g opacity="0.4">
        <path opacity="0.4" d="M45.0368 104.512C44.6704 104.512 44.3706 104.212 44.3706 103.845V99.7792C44.3706 99.4126 44.6704 99.1127 45.0368 99.1127C45.4033 99.1127 45.7031 99.4126 45.7031 99.7792V103.845C45.7031 104.212 45.4033 104.512 45.0368 104.512Z" fill="#AFAAE5"/>
      </g>
      <g opacity="0.4">
        <path opacity="0.4" d="M47.0688 102.479H43.0049C42.6384 102.479 42.3386 102.179 42.3386 101.812C42.3386 101.446 42.6384 101.146 43.0049 101.146H47.0688C47.4352 101.146 47.735 101.446 47.735 101.812C47.735 102.179 47.4352 102.479 47.0688 102.479Z" fill="#AFAAE5"/>
      </g>
    </g>
    <g opacity="0.4">
      <g opacity="0.4">
        <path opacity="0.4" d="M47.3686 35.526C47.0022 35.526 46.7024 35.226 46.7024 34.8594V30.7936C46.7024 30.427 47.0022 30.1271 47.3686 30.1271C47.735 30.1271 48.0348 30.427 48.0348 30.7936V34.8594C48.0348 35.226 47.735 35.526 47.3686 35.526Z" fill="#AFAAE5"/>
      </g>
      <g opacity="0.4">
        <path opacity="0.4" d="M49.4006 33.493H45.3366C44.9702 33.493 44.6704 33.1931 44.6704 32.8265C44.6704 32.4599 44.9702 32.16 45.3366 32.16H49.4006C49.767 32.16 50.0668 32.4599 50.0668 32.8265C50.0668 33.1931 49.767 33.493 49.4006 33.493Z" fill="#AFAAE5"/>
      </g>
    </g>
    <g opacity="0.4">
      <g opacity="0.4">
        <path opacity="0.4" d="M5.89572 135.738C5.52929 135.738 5.22949 135.438 5.22949 135.072V131.006C5.22949 130.639 5.52929 130.34 5.89572 130.34C6.26214 130.34 6.56194 130.639 6.56194 131.006V135.072C6.56194 135.438 6.26214 135.738 5.89572 135.738Z" fill="#AFAAE5"/>
      </g>
      <g opacity="0.4">
        <path opacity="0.4" d="M7.92796 133.706H3.86398C3.49756 133.706 3.19775 133.406 3.19775 133.039C3.19775 132.672 3.49756 132.372 3.86398 132.372H7.92796C8.29438 132.372 8.59418 132.672 8.59418 133.039C8.59418 133.406 8.29438 133.706 7.92796 133.706Z" fill="#AFAAE5"/>
      </g>
    </g>
    <g opacity="0.4">
      <path opacity="0.4" d="M16.6556 46.457C15.6563 46.457 14.8235 45.6238 14.8235 44.624C14.8235 43.6242 15.6563 42.7911 16.6556 42.7911C17.6549 42.7911 18.4877 43.6242 18.4877 44.624C18.4877 45.6238 17.6549 46.457 16.6556 46.457ZM16.6556 44.1241C16.3891 44.1241 16.1559 44.3574 16.1559 44.624C16.1559 44.8906 16.3891 45.1239 16.6556 45.1239C16.9221 45.1239 17.1553 44.8906 17.1553 44.624C17.1553 44.3574 16.9221 44.1241 16.6556 44.1241Z" fill="#AFAAE5"/>
    </g>
    <g opacity="0.4">
      <path opacity="0.4" d="M40.3066 76.4507C40.1401 76.4507 39.9735 76.3841 39.8402 76.2508C39.707 76.1175 39.6404 75.9508 39.6404 75.7842C39.6404 75.6176 39.707 75.4509 39.8402 75.3176C40.1067 75.051 40.5398 75.051 40.773 75.3176C40.8063 75.351 40.8396 75.3843 40.8396 75.4176C40.8729 75.4509 40.8729 75.4843 40.9062 75.5176C40.9062 75.5509 40.9395 75.5842 40.9395 75.6509C40.9395 75.6842 40.9395 75.7509 40.9395 75.7842C40.9395 75.9508 40.8729 76.1175 40.7397 76.2508C40.6397 76.3841 40.4732 76.4507 40.3066 76.4507Z" fill="#AFAAE5"/>
    </g>
    <g opacity="0.4">
      <path opacity="0.4" d="M12.8248 25.0948C12.6583 25.0948 12.4917 25.0281 12.3585 24.8948C12.3251 24.8615 12.2918 24.8282 12.2918 24.7948C12.2585 24.7615 12.2585 24.7282 12.2252 24.6949C12.1919 24.6615 12.1919 24.6282 12.1919 24.5615C12.1919 24.5282 12.1919 24.4616 12.1919 24.4282C12.1919 24.3949 12.1919 24.3283 12.1919 24.2949C12.1919 24.2616 12.2252 24.2283 12.2252 24.1616C12.2252 24.095 12.2585 24.095 12.2918 24.0617C12.3251 24.0283 12.3585 23.995 12.3585 23.9617C12.3918 23.9283 12.4251 23.895 12.4584 23.895C12.4917 23.8617 12.525 23.8617 12.5583 23.8284C12.5916 23.795 12.6249 23.795 12.6916 23.795C12.7582 23.795 12.8581 23.795 12.9581 23.795C12.9914 23.795 13.0247 23.8284 13.0913 23.8284C13.1246 23.8284 13.1579 23.8617 13.2245 23.895C13.2579 23.9283 13.2912 23.9617 13.3245 23.9617C13.3578 23.995 13.3911 24.0283 13.3911 24.0617C13.4244 24.095 13.4244 24.1283 13.4577 24.1616C13.491 24.195 13.491 24.2283 13.491 24.2949C13.491 24.3283 13.491 24.3949 13.491 24.4282C13.491 24.4616 13.491 24.5282 13.491 24.5615C13.491 24.5949 13.4577 24.6615 13.4577 24.6949C13.4244 24.7282 13.4244 24.7615 13.3911 24.7948C13.3578 24.8282 13.3245 24.8615 13.3245 24.8948C13.1579 24.9948 12.9914 25.0948 12.8248 25.0948Z" fill="#AFAAE5"/>
    </g>
    <g opacity="0.4">
      <path opacity="0.4" d="M20.7195 149.735C20.5529 149.735 20.3863 149.669 20.2531 149.536C20.1198 149.402 20.0532 149.236 20.0532 149.069C20.0532 149.036 20.0532 148.969 20.0532 148.936C20.0532 148.902 20.0865 148.869 20.0865 148.802C20.0865 148.769 20.1198 148.736 20.1532 148.702C20.1865 148.669 20.1865 148.636 20.2198 148.602C20.2531 148.569 20.2864 148.536 20.3197 148.536C20.353 148.502 20.3863 148.502 20.4196 148.469C20.453 148.436 20.4863 148.436 20.5529 148.436C20.7528 148.402 20.9859 148.469 21.1525 148.602C21.1858 148.636 21.2191 148.669 21.2191 148.702C21.2524 148.736 21.2524 148.769 21.2857 148.802C21.2857 148.836 21.3191 148.869 21.3191 148.936C21.3191 149.002 21.3191 149.036 21.3191 149.069C21.3191 149.236 21.2524 149.402 21.1192 149.536C21.0526 149.602 20.9859 149.635 20.886 149.669C20.886 149.735 20.8194 149.735 20.7195 149.735Z" fill="#AFAAE5"/>
    </g>
  </g>
</svg>
