<svg width="16" height="16" viewBox="0 0 16 16" fill="none" xmlns="http://www.w3.org/2000/svg">
    <g clip-path="url(#clip0_2362_40692)">
        <path
            d="M5.7714 7.57776C6.081 7.77412 6.081 8.22588 5.7714 8.42224L1.7678 10.9615C1.4349 11.1726 1 10.9334 1 10.5392V5.46077C1 5.06657 1.4349 4.8274 1.7678 5.03853L5.7714 7.57776Z"
            fill="#666666" />
        <path fill-rule="evenodd" clip-rule="evenodd"
            d="M10.4807 1.54229C11.3532 2.37335 12.0479 3.37293 12.5226 4.4804C12.9973 5.58787 13.2421 6.78013 13.2422 7.98488C13.2423 9.18963 12.9977 10.3817 12.5232 11.4889C12.0488 12.5961 11.3543 13.5953 10.482 14.4259C10.182 14.7116 10.1704 15.1863 10.456 15.4863C10.7416 15.7863 11.2164 15.7979 11.5163 15.5122C12.5358 14.5415 13.3474 13.3737 13.902 12.0798C14.4565 10.7858 14.7424 9.39265 14.7422 7.98475C14.7421 6.57686 14.456 5.18359 13.9013 3.88945C13.3466 2.59531 12.5348 1.42725 11.5152 0.456129C11.2153 0.170451 10.7406 0.182007 10.4549 0.481941C10.1692 0.781876 10.1808 1.25661 10.4807 1.54229ZM7.16578 4.88284C7.598 5.27586 7.94331 5.75487 8.17956 6.28913C8.41582 6.82338 8.53778 7.40107 8.53765 7.98513C8.53753 8.56918 8.41531 9.1467 8.17885 9.68064C7.9424 10.2146 7.59693 10.6931 7.16461 11.0856C6.85794 11.3641 6.83504 11.8384 7.11347 12.1451C7.3919 12.4518 7.86622 12.4746 8.1729 12.1962C8.76005 11.6631 9.22925 11.0132 9.55038 10.288C9.87151 9.56288 10.0375 8.77858 10.0377 7.98545C10.0378 7.19233 9.8722 6.4079 9.55142 5.68248C9.23064 4.95707 8.76178 4.30668 8.17493 3.77305C7.86847 3.49438 7.39413 3.51691 7.11546 3.82337C6.83679 4.12983 6.85932 4.60417 7.16578 4.88284Z"
            fill="#666666" />
    </g>
    <defs>
        <clipPath id="clip0_2362_40692">
            <rect width="16" height="16" fill="white" />
        </clipPath>
    </defs>
</svg>
