<svg width="72" height="72" fill="none" xmlns="http://www.w3.org/2000/svg"><g clip-path="url(#magnifying-glass__a)"><path d="m48 55 7-7 12.5 12.5a4.95 4.95 0 1 1-7 7L48 55Z" fill="#6E49CB" fill-opacity=".24"/><path d="m48 55 7-7 13.5 13.5a4.95 4.95 0 0 1 0 7v0a4.95 4.95 0 0 1-7 0L53 60m-8-15 6 6" stroke="#6E49CB" stroke-width="4" stroke-linecap="round" stroke-linejoin="round"/><circle cx="27" cy="27" r="25" stroke="#6E49CB" stroke-width="4" stroke-linecap="round" stroke-linejoin="round"/><circle cx="27" cy="27" r="20" fill="#18A3FF" fill-opacity=".24"/><path d="m21 22 6-6m5 6 4-4M20 34l8-8" stroke="#6E49CB" stroke-width="2" stroke-linecap="round" stroke-linejoin="round"/></g><defs><clipPath id="magnifying-glass__a"><path fill="#fff" d="M0 0h72v72H0z"/></clipPath></defs></svg>