<svg width="72" height="72" viewBox="0 0 72 72" fill="none" xmlns="http://www.w3.org/2000/svg">
<path d="M11 36L61 36" stroke="#6E49CB" stroke-width="4" stroke-linecap="round" stroke-linejoin="round"/>
<circle cx="61" cy="36" r="9" fill="#4BEACC" stroke="#6E49CB" stroke-width="4" stroke-linecap="round"/>
<path d="M58.0416 35.5742C57.6518 35.183 57.0186 35.1819 56.6274 35.5718C56.2362 35.9616 56.2351 36.5948 56.625 36.986L58.0416 35.5742ZM59.4902 38.4444L58.7818 39.1503C58.9695 39.3386 59.2244 39.4444 59.4902 39.4444C59.756 39.4444 60.0109 39.3386 60.1985 39.1503L59.4902 38.4444ZM65.375 33.9559C65.7648 33.5647 65.7637 32.9315 65.3725 32.5417C64.9813 32.1518 64.3482 32.1529 63.9583 32.5441L65.375 33.9559ZM56.625 36.986L58.7818 39.1503L60.1985 37.7386L58.0416 35.5742L56.625 36.986ZM60.1985 39.1503L65.375 33.9559L63.9583 32.5441L58.7818 37.7386L60.1985 39.1503Z" fill="#6E49CB"/>
<circle cx="36" cy="36" r="9" fill="#4BEACC" stroke="#6E49CB" stroke-width="4" stroke-linecap="round"/>
<path d="M33.0416 35.5742C32.6518 35.183 32.0186 35.1819 31.6274 35.5718C31.2362 35.9616 31.2351 36.5948 31.625 36.986L33.0416 35.5742ZM34.4902 38.4444L33.7818 39.1503C33.9695 39.3386 34.2244 39.4444 34.4902 39.4444C34.756 39.4444 35.0109 39.3386 35.1985 39.1503L34.4902 38.4444ZM40.375 33.9559C40.7648 33.5647 40.7637 32.9315 40.3725 32.5417C39.9813 32.1518 39.3482 32.1529 38.9583 32.5441L40.375 33.9559ZM31.625 36.986L33.7818 39.1503L35.1985 37.7386L33.0416 35.5742L31.625 36.986ZM35.1985 39.1503L40.375 33.9559L38.9583 32.5441L33.7818 37.7386L35.1985 39.1503Z" fill="#6E49CB"/>
<circle cx="11" cy="36" r="9" fill="#4BEACC" stroke="#6E49CB" stroke-width="4" stroke-linecap="round"/>
<path d="M8.04164 35.5742C7.6518 35.183 7.01863 35.1819 6.62743 35.5718C6.23623 35.9616 6.23513 36.5948 6.62498 36.986L8.04164 35.5742ZM9.49018 38.4444L8.78184 39.1503C8.96948 39.3386 9.22436 39.4444 9.49018 39.4444C9.75599 39.4444 10.0109 39.3386 10.1985 39.1503L9.49018 38.4444ZM15.375 33.9559C15.7648 33.5647 15.7637 32.9315 15.3725 32.5417C14.9813 32.1518 14.3482 32.1529 13.9583 32.5441L15.375 33.9559ZM6.62498 36.986L8.78184 39.1503L10.1985 37.7386L8.04164 35.5742L6.62498 36.986ZM10.1985 39.1503L15.375 33.9559L13.9583 32.5441L8.78184 37.7386L10.1985 39.1503Z" fill="#6E49CB"/>
</svg>
