<svg xmlns="http://www.w3.org/2000/svg" viewBox="0 0 600 600"><defs><style>.dark-blue{fill:#002147;}</style></defs><title>Diffblue Logomark Blue</title><g><g><path class="dark-blue" d="M313.6,250.65c-3.82,3.59-5.15,8.32-3,10.53s20.57,15,24.39,11.41-8.44-22.32-10.57-24.5S317.41,247,313.6,250.65Z"/><path class="dark-blue" d="M207.59,302.35a1.24,1.24,0,0,0,1.57-.72l0-.12a190.56,190.56,0,0,1,9.39-22,64.6,64.6,0,0,1,12.71-17.17,51.58,51.58,0,0,1,18.24-10.57c7.1-2.52,15-4,23.47-5.61a1.19,1.19,0,0,0,.87-.68,1.15,1.15,0,0,0-.65-1.57,51.74,51.74,0,0,0-26.36-4.12,46.29,46.29,0,0,0-26,11.41,48.06,48.06,0,0,0-14.27,24c-2.21,8.82-2.44,17.86.23,26.41A1.16,1.16,0,0,0,207.59,302.35Z"/><path class="dark-blue" d="M366.07,203.45a47,47,0,0,0,12.55-48.39,25.74,25.74,0,0,1-8.09,19.31,26.71,26.71,0,0,1-37.43-.76,25.9,25.9,0,0,1,.76-36.94,26.62,26.62,0,0,1,27.55-5.61,48.6,48.6,0,0,0-62.05,3.81,47.11,47.11,0,0,0-1.37,67.2A48.62,48.62,0,0,0,366.07,203.45Z"/><path class="dark-blue" d="M300,0C134.31,0,0,134.31,0,300S134.31,600,300,600,600,465.69,600,300,465.69,0,300,0ZM133.18,252.25c-33-15.95-31.37-30.22-31.37-30.22s14-13.2,42.86-13a429,429,0,0,0,31-32.44c16.37-19,43.35-23.27,61.13-8.66-14-18.13-8.58-44.57,11.26-59.95a432.89,432.89,0,0,0,34.08-29.23C283.11,50.28,297,37,297,37s14.53-1,29.34,32.28a129.58,129.58,0,0,1,54.68,33.35C434,157,428.42,247,368.66,303.57a158.75,158.75,0,0,1-77.35,40.61,100,100,0,0,0-14.69-19.05L272,320.75l-6.45-.16a115.27,115.27,0,0,0-60.55,15,128.57,128.57,0,0,1-40.26-28A126.58,126.58,0,0,1,133.18,252.25Zm57.74,257.31s36.67-68.8-11-130.16c0,0,28.77-43.92,85.21-42.47,0,0,44.68,42.54,16.9,107.91S190.92,509.56,190.92,509.56Zm265-138.83c-12.48,93.95-77,167.83-158.82,193.78,0,0-35.22-17.14-58.19-50.56,20.91-10,43.88-28.59,58.42-62.81,16.6-39,10.84-71,1.22-93C417.77,332,428.57,223.67,428.57,223.67A237.7,237.7,0,0,1,455.89,370.73Z"/></g></g></svg>