<svg width="674" height="157" xmlns="http://www.w3.org/2000/svg">
  <path
    d="M345.8 13.7h-2.9c-2.9 0-5.3 2.4-5.3 5.3v119.1c0 2.9 2.4 5.3 5.3 5.3h2.9c2.9 0 5.3-2.4 5.3-5.3V19c0-3-2.4-5.3-5.3-5.3Zm-90.3 14.8h-2.9c-2.9 0-5.3 2.4-5.3 5.3v89.4c0 2.9 2.4 5.3 5.3 5.3h2.9c2.9 0 5.3-2.4 5.3-5.3V33.8c0-2.9-2.4-5.3-5.3-5.3ZM300.7 0h-2.9c-2.9 0-5.3 2.4-5.3 5.3v146.4c0 2.9 2.4 5.3 5.3 5.3h2.9c2.9 0 5.3-2.4 5.3-5.3V5.3c0-2.9-2.4-5.3-5.3-5.3Zm22.5 26.1h-2.9c-2.9 0-5.3 2.4-5.3 5.3v94.3c0 2.9 2.4 5.3 5.3 5.3h2.9c2.9 0 5.3-2.4 5.3-5.3V31.4c0-3-2.3-5.3-5.3-5.3Zm-45.1-8.7h-2.9c-2.9 0-5.3 2.4-5.3 5.3v111.7c0 2.9 2.4 5.3 5.3 5.3h2.9c2.9 0 5.3-2.4 5.3-5.3V22.7c0-2.9-2.4-5.3-5.3-5.3Zm90.3 30.7h-2.9c-2.9 0-5.3 2.4-5.3 5.3v50.3c0 2.9 2.4 5.3 5.3 5.3h2.9c2.9 0 5.3-2.4 5.3-5.3V53.4c0-3-2.4-5.3-5.3-5.3Zm-135.5 0H230c-2.9 0-5.3 2.4-5.3 5.3v50.3c0 2.9 2.4 5.3 5.3 5.3h2.9c2.9 0 5.3-2.4 5.3-5.3V53.4c0-3-2.4-5.3-5.3-5.3Zm412 18.6c-10.4-4.2-14.6-7.8-14.6-12.5 0-3.3 3.5-6 7.7-6 7.1 0 15.6 5.7 18.4 7.6.5.3.9.6.9.6.7.5 1.5.7 2.5.5 1.5-.3 3.1-1.3 3.9-2.6l7.2-10.8c.8-1.4 1.1-4.6-1.1-5.9-5.5-4-16.7-10.7-30.6-10.7-16.6 0-33.5 9.9-33.5 28.9 0 17.3 15.2 26.9 27.9 31.9 9.4 3.7 13.7 7.9 13.7 13.1 0 4.3-3.5 7.3-8.6 7.3-3.6 0-9.8-1.2-18.8-7.2-.3-.2-.5-.3-.5-.3-.9-.6-2.4-.9-3.7-.6-1.2.2-2.1.9-2.7 1.8l-6.6 11.6c-1.5 2.6-.7 3.7.9 5.2 1.9 1.8 12.1 11.1 32.3 11.1 21.4 0 34.2-15.2 34.2-30 .1-21.5-21.8-30.2-28.9-33Zm-65.2-39.2h-17.2c-2.1 0-3.8 1.7-3.8 3.7v56.5c0 9.4-7.1 16.5-16.4 16.5-9.2 0-16.1-7.1-16.1-16.5V31.2c0-2.1-1.7-3.7-3.8-3.7h-17.2c-2 0-3.8 1.7-3.8 3.7v57.7c0 22 18.3 39.9 40.9 39.9 22.7 0 41.2-17.9 41.2-39.9V31.2c-.1-1.9-1.8-3.7-3.8-3.7ZM457.1 59.9c0-5.2-4.4-9.5-9.6-9.5h-19.6V70h19.6c5.2-.1 9.6-4.8 9.6-10.1Zm3.6 28.1 18.6 34.4c.7 1.3.7 2.7 0 3.9-.7 1.1-1.9 1.8-3.3 1.8h-18.6c-1.6 0-2.8-1-3.2-1.9l-18.3-36.4H428v34.5c0 2-1.8 3.7-3.8 3.7h-16.7c-2.1 0-3.8-1.7-3.8-3.7V31.9c0-2.1 1.7-3.7 3.8-3.7h41.9c17.4 0 31.6 14 31.6 31.2 0 12.3-7.7 23.2-20.3 28.6ZM191.1 28.2h-16.7c-2.1 0-3.8 1.7-3.8 3.7V66h-37.9V31.9c0-2.1-1.7-3.7-3.8-3.7h-16.7c-2 0-3.8 1.7-3.8 3.7v92.4c0 2 1.8 3.7 3.8 3.7H129c2.1 0 3.8-1.7 3.8-3.7V88.7h37.9v35.6c0 2.1 1.7 3.7 3.8 3.7h16.7c2 0 3.8-1.7 3.8-3.7V31.9c-.1-2-1.9-3.7-3.9-3.7ZM26 77.7C26 93 37.7 105 52.5 105c6.6 0 13.4-2.4 18.1-6.4 1.5-1.3 4-1.1 5.2.3l10.9 11.6c1.4 1.4 1.3 3.8-.2 5.3-9.4 9.1-21.4 13.9-34.8 13.9-28.5 0-51.7-23-51.7-51.2C0 50.1 23.2 27 51.7 27c13.9 0 24.5 4.1 34.6 13.3.8.7 1.3 1.7 1.3 2.7 0 1-.4 2-1.1 2.8l-10.9 11c-.7.7-1.6 1.1-2.5 1.1-.9 0-1.8-.4-2.5-1.1-4.8-4.3-11.5-6.8-18.1-6.8C37.6 50.1 26 62.2 26 77.7Z"
    fill="#666"/>
</svg>
