<svg xmlns="http://www.w3.org/2000/svg" viewBox="0 0 1000 1000" enable-background="new 0 0 1000 1000"><path d="m103.8 454c16.1-7.9 34-11.7 51.9-10.9 34.7 1.2 53.8 18.8 54.6 53.4.8 36.2.6 72.1.4 108.2 0 14.7-3.9 18.1-18.4 18.1h-20.1c-12.9 0-16.9-3.9-17.1-16.9v-96.9c0-15-7.1-21.2-22.2-20.5-2.6 0-5.3.3-7.9.8-19.9 4-21 5.5-21 25.7v86.4c0 18.5-3.2 21.6-21.3 21.6h-20.3c-9.5 0-13.7-4.4-14.3-14.2v-228.3c0-16.7 3.6-20.2 20-20.2h17.8c13.8 0 18 3.9 18.3 17.8.4 20.9 0 41.7 0 62.5-.4 3.8-.4 8-.4 13.4"/><path d="m400.7 538.5c-1.2 9.6-1.9 21.9-4.4 33.9-4 27-25 48.4-52 52.9-18.4 4-37.5 3.7-55.9-.7-23.2-4.5-41.7-22-47.4-45-8.4-29-8.4-59.7 0-88.7 8.9-30.4 32.1-46.7 66.2-47.9 12.3-.7 24.6.1 36.7 2.3 32.2 6.4 50.4 28.2 54.5 63.8 1.1 9.1 1.4 17.8 2.3 29.4m-56.2.7c-.6-9.9-1-16.7-1.6-23.3-.4-3.5-1.1-6.9-2.1-10.3-2-11.2-12.2-19.1-23.6-18.2-11.1-.8-21 6.8-23 17.8-5 20-5 40.9 0 60.9 2.1 11.1 12.4 18.8 23.7 17.5 10.7.7 20.2-6.6 22.2-17.1 2-9 3.5-18.1 4.4-27.3"/><path d="m756.4 511.6c2.4-18.6-1.7-24.3-19.6-23.5-14.6 1.2-29.1 3.4-43.4 6.4-12.1 2.2-21-.9-22.7-10.3-2.8-15.6-1.7-28.9 10.8-32.6 28.9-9.5 59.8-11 89.4-4.4 26.9 6.4 40 24.3 40 53.4v103c0 7.8 0 15.8-9.2 18.8-10.3 3.8-21.8.6-28.8-7.9l-2.8-4.1c-15.8 12.6-35.6 19-55.8 17.8-43.8-1.6-69-43.4-49.9-83.1 8.9-18.9 26.7-24.9 45-27.8 15.7-2.5 31.4-3.9 47-5.7m.8 30.3c-10.6 1.6-20 2.5-29 4.4-9.5 1.2-16.6 9.2-16.8 18.7-2 9.6 3.1 19.2 12.1 23 8.9 3.5 27.8 0 32.2-6 .8-1.2 1.3-2.6 1.3-4 .3-11.7.3-23.3.3-36.3v.2z"/><path d="m438.8 449.3v-23c-.8-7 3.7-13.6 10.6-15.3 9.1-3 18.3-5.6 27.6-7.7 6.7-2.2 14 1.4 16.2 8.1.6 1.8.8 3.7.6 5.6.3 9.9 0 19.7 0 30.8h26.4c12.9.3 17.3 4.4 17.8 17.8.7 27-.8 28.6-27.5 28.6h-15.5c-.4 2.4-.7 4.8-.8 7.3v57.1c0 17.8 5.3 23.2 22.6 24.5 15.2 1.1 19.3 4.4 19.3 16.8.5 19.7-3.5 26.4-19.3 27.3-12.6.9-25.2.3-37.6-1.9-25.7-5.2-39.6-21.9-40.5-49.1-.8-23.7-.3-47.5-.4-71.2v-10.7h-15.6c-7.3.6-13.8-4.9-14.4-12.2 0-.4 0-.8 0-1.2-2.1-18.2 1.1-23 18.4-27.9l12.1-3.7"/><path d="m632.2 559.9c0 30.8.6 61.6 0 92.4-.2 35.5-29.1 64.2-64.6 64.1-3.4 0-6.8-.3-10.1-.8-12.4-1.6-16.8-6.4-17-19.3v-11.4c.5-10.8 3.9-14.5 14.5-16.5 16.5-3.1 21.8-9.2 21.9-26.5v-175.2c0-14.9 3.8-18.8 18.7-19.3h20.2c12 .5 16.5 4.9 16.5 16.9v95l-.1.6"/><path d="m880.6 460c14.6-10.5 31.9-16.3 49.9-16.9 17.8 0 21.9 3.7 21.8 21.3v7.9c0 11.4-4.7 15.4-15.8 16.6-10.5 1.3-20.9 3.1-31.1 5.5-6.9 1.5-9.5 5.6-9.4 13.3.5 32.2 0 64 0 96 0 15.7-3.4 19-19.3 19.3h-22.9c-6.6.5-12.4-4.4-12.9-10.9-.1-.8-.1-1.6 0-2.4v-147.9c-.5-6.6 4.4-12.3 11-12.9h.5c11.1-1.8 22.8-3.5 28.2 11.1"/><path d="m626.2 416.1c10.1-36.1 6.4-54.3-11.2-57.8 2.7 12.3 5.7 24.9-7.2 33.4-6.8 4.4-12.1 2.8-24.1-6.4-5.5 11.3-3.6 22.6-1.1 34.7-17.2-3-30.7-10.1-37-26.7-6.5-15.1-2.9-32.6 8.9-43.9 4.1-4.2 8.6-8 13.3-11.5 19.3-14.5 23-28.5 12.9-50.3-.5-1.2-.8-2.5-1.1-3.8 21.5 3.3 41.8 11.9 59 25 37.6 30.8 33.1 86-8.4 106.4-1.3-.1-2.7.3-4 .9"/></svg>