<?xml version="1.0" encoding="utf-8"?>
<!-- Generator: Adobe Illustrator 23.0.1, SVG Export Plug-In . SVG Version: 6.00 Build 0)  -->
<svg version="1.1" id="Layer_1" xmlns="http://www.w3.org/2000/svg" xmlns:xlink="http://www.w3.org/1999/xlink" x="0px" y="0px"
	 viewBox="0 0 674 157" style="enable-background:new 0 0 674 157;" xml:space="preserve">
<title>Chorus - color</title>
<desc>Created with Sketch.</desc>
<g id="Chorus---color">
	<g id="Chorus-Logo---Gradient">
		<path d="M345.8,13.7h-2.9c-2.9,0-5.3,2.4-5.3,5.3v119.1c0,2.9,2.4,5.3,5.3,5.3h2.9c2.9,0,5.3-2.4,5.3-5.3V19
			C351.1,16,348.7,13.7,345.8,13.7 M255.5,28.5h-2.9c-2.9,0-5.3,2.4-5.3,5.3v89.4c0,2.9,2.4,5.3,5.3,5.3h2.9c2.9,0,5.3-2.4,5.3-5.3
			V33.8C260.8,30.9,258.4,28.5,255.5,28.5 M300.7,0h-2.9c-2.9,0-5.3,2.4-5.3,5.3v146.4c0,2.9,2.4,5.3,5.3,5.3h2.9
			c2.9,0,5.3-2.4,5.3-5.3V5.3C306,2.4,303.6,0,300.7,0 M323.2,26.1h-2.9c-2.9,0-5.3,2.4-5.3,5.3v94.3c0,2.9,2.4,5.3,5.3,5.3h2.9
			c2.9,0,5.3-2.4,5.3-5.3V31.4C328.5,28.4,326.2,26.1,323.2,26.1 M278.1,17.4h-2.9c-2.9,0-5.3,2.4-5.3,5.3v111.7
			c0,2.9,2.4,5.3,5.3,5.3h2.9c2.9,0,5.3-2.4,5.3-5.3V22.7C283.4,19.8,281,17.4,278.1,17.4 M368.4,48.1h-2.9c-2.9,0-5.3,2.4-5.3,5.3
			v50.3c0,2.9,2.4,5.3,5.3,5.3h2.9c2.9,0,5.3-2.4,5.3-5.3V53.4C373.7,50.4,371.3,48.1,368.4,48.1 M232.9,48.1H230
			c-2.9,0-5.3,2.4-5.3,5.3v50.3c0,2.9,2.4,5.3,5.3,5.3h2.9c2.9,0,5.3-2.4,5.3-5.3V53.4C238.2,50.4,235.8,48.1,232.9,48.1
			 M644.9,66.7c-10.4-4.2-14.6-7.8-14.6-12.5c0-3.3,3.5-6,7.7-6c7.1,0,15.6,5.7,18.4,7.6c0.5,0.3,0.9,0.6,0.9,0.6
			c0.7,0.5,1.5,0.7,2.5,0.5c1.5-0.3,3.1-1.3,3.9-2.6l7.2-10.8c0.8-1.4,1.1-4.6-1.1-5.9c-5.5-4-16.7-10.7-30.6-10.7
			c-16.6,0-33.5,9.9-33.5,28.9c0,17.3,15.2,26.9,27.9,31.9c9.4,3.7,13.7,7.9,13.7,13.1c0,4.3-3.5,7.3-8.6,7.3
			c-3.6,0-9.8-1.2-18.8-7.2c-0.3-0.2-0.5-0.3-0.5-0.3c-0.9-0.6-2.4-0.9-3.7-0.6c-1.2,0.2-2.1,0.9-2.7,1.8l-6.6,11.6
			c-1.5,2.6-0.7,3.7,0.9,5.2c1.9,1.8,12.1,11.1,32.3,11.1c21.4,0,34.2-15.2,34.2-30C673.9,78.2,652,69.5,644.9,66.7 M579.7,27.5
			h-17.2c-2.1,0-3.8,1.7-3.8,3.7v56.5c0,9.4-7.1,16.5-16.4,16.5c-9.2,0-16.1-7.1-16.1-16.5V31.2c0-2.1-1.7-3.7-3.8-3.7h-17.2
			c-2,0-3.8,1.7-3.8,3.7v57.7c0,22,18.3,39.9,40.9,39.9c22.7,0,41.2-17.9,41.2-39.9V31.2C583.4,29.3,581.7,27.5,579.7,27.5
			 M457.1,59.9c0-5.2-4.4-9.5-9.6-9.5h-19.6v19.6h19.6C452.7,69.9,457.1,65.2,457.1,59.9 M460.7,88l18.6,34.4c0.7,1.3,0.7,2.7,0,3.9
			c-0.7,1.1-1.9,1.8-3.3,1.8h-18.6c-1.6,0-2.8-1-3.2-1.9l-18.3-36.4h-7.9v34.5c0,2-1.8,3.7-3.8,3.7h-16.7c-2.1,0-3.8-1.7-3.8-3.7
			V31.9c0-2.1,1.7-3.7,3.8-3.7h41.9c17.4,0,31.6,14,31.6,31.2C481,71.7,473.3,82.6,460.7,88 M191.1,28.2h-16.7
			c-2.1,0-3.8,1.7-3.8,3.7V66h-37.9V31.9c0-2.1-1.7-3.7-3.8-3.7h-16.7c-2,0-3.8,1.7-3.8,3.7v92.4c0,2,1.8,3.7,3.8,3.7H129
			c2.1,0,3.8-1.7,3.8-3.7V88.7h37.9v35.6c0,2.1,1.7,3.7,3.8,3.7h16.7c2,0,3.8-1.7,3.8-3.7V31.9C194.9,29.9,193.1,28.2,191.1,28.2
			 M26,77.7C26,93,37.7,105,52.5,105c6.6,0,13.4-2.4,18.1-6.4c1.5-1.3,4-1.1,5.2,0.3l10.9,11.6c1.4,1.4,1.3,3.8-0.2,5.3
			c-9.4,9.1-21.4,13.9-34.8,13.9c-28.5,0-51.7-23-51.7-51.2c0-28.4,23.2-51.5,51.7-51.5c13.9,0,24.5,4.1,34.6,13.3
			c0.8,0.7,1.3,1.7,1.3,2.7c0,1-0.4,2-1.1,2.8L75.6,56.8c-0.7,0.7-1.6,1.1-2.5,1.1h0c-0.9,0-1.8-0.4-2.5-1.1
			c-4.8-4.3-11.5-6.8-18.1-6.8C37.6,50.1,26,62.2,26,77.7"/>
	</g>
</g>
</svg>
