<svg xmlns="http://www.w3.org/2000/svg" viewBox="0 0 100 18" enable-background="new 0 0 100 18"><g transform="matrix(.16667 0 0 .16667-5.767 76.63)" fill="#231f20"><path d="m34.6-458.2c.8-.1 1.6-.2 2.7-.2 1.1-.1 2-.1 2.9-.1 1 0 1.9 0 2.9.1 1 .1 1.8.1 2.5.2v104.5c-.7.1-1.6.2-2.5.2-1 0-1.9.1-2.9.1-1.1 0-2.1 0-3.1-.1-1-.1-1.8-.1-2.5-.2v-104.5m84.6 30.4c.8-.1 1.7-.2 2.5-.2s1.6-.1 2.3-.1c.8 0 1.6 0 2.4.1.7 0 1.5.1 2.4.2.2 1.8.4 3.9.5 6.5.1 2.7.2 4.9.2 6.8 1.1-1.8 2.4-3.6 4.1-5.3 1.7-1.8 3.7-3.5 6-4.9 2.3-1.5 4.9-2.7 7.9-3.6 3-.9 6.2-1.4 9.7-1.4 9.3 0 16.1 2.6 20.4 7.6 4.2 5.1 6.4 12.2 6.4 21.4v47c-.6.1-1.5.2-2.6.2s-2 .1-2.6.1c-.5 0-1.4 0-2.5-.1-1.2-.1-2.1-.1-2.7-.2v-43.9c0-8.2-1.4-14.1-4.2-17.8-2.8-3.6-7-5.3-12.7-5.3-3.7 0-7.2.7-10.5 2-3.3 1.4-6.1 3.4-8.5 5.9-2.4 2.6-4.3 5.7-5.7 9.6-1.4 3.8-2.1 8.1-2.1 12.9v36.6c-.6.1-1.5.2-2.6.2-1.1 0-2 .1-2.6.1-.5 0-1.4 0-2.6-.1s-2.1-.1-2.7-.2v-74.1h-.2m157.9 0c.6-.1 1.5-.2 2.5-.2s2-.1 3.1-.1c.8 0 1.9 0 3.1.1 1.2 0 2.1.1 2.8.2l18 63.2 20.1-63.2c.8-.1 1.8-.2 2.8-.2s2.1-.1 3.3-.1h2.6c.9 0 1.8.1 2.6.3l20 62.3 18-62.3c.6-.1 1.4-.2 2.3-.2s1.8-.1 2.6-.1 1.8 0 2.9.1c1.1 0 1.9.1 2.5.2l-23.4 74.1c-1.9.3-3.8.4-5.6.4-2 0-3.9-.2-5.6-.4l-19.6-61.4-20.5 61.4c-1.9.3-3.8.4-5.6.4-2 0-3.9-.2-5.6-.4l-23.3-74.1m122.8-30.4c1.1-.1 2.6-.2 4.5-.4 2-.2 4.1-.4 6.3-.6 2.2-.2 4.5-.4 6.8-.5 2.3-.1 4.3-.1 6.1-.1 12.5 0 22.1 2.2 28.8 6.6 6.7 4.4 10 11.3 10 20.5 0 3.1-.5 5.7-1.5 8.2-1 2.5-2.4 4.7-4.1 6.7s-3.7 3.7-6 5-4.6 2.4-7.1 3.1c3.3.4 6.5 1.2 9.6 2.4 3.1 1.2 5.8 3 8.2 5.1 2.4 2.2 4.3 4.9 5.7 8.1 1.4 3.3 2.2 7.1 2.2 11.7 0 5.2-1.1 9.8-3.4 13.5s-5.5 6.9-9.5 9.5c-4.1 2.6-8.9 4.3-14.5 5.6-5.6 1.2-11.6 1.8-18.2 1.8-1.7 0-3.6 0-5.7-.1-2.1-.1-4.3-.2-6.4-.4-2.2-.1-4.3-.3-6.4-.6-2.1-.3-3.8-.5-5.3-.7v-104.5h-.1zm26.1 44.5c8.6 0 14.9-1.8 18.9-5.2 4-3.5 6-8 6-13.7 0-5.2-2.1-9.6-6.3-13.1-4.2-3.6-10.8-5.3-19.8-5.3-2.8 0-5.4.1-7.9.3-2.5.2-4.5.4-6 .6v36.5l15.1-.1m-15.1 51.9c1.5.2 3.5.4 6 .5 2.5.1 5.1.2 7.9.2 4.1 0 8.2-.3 12.2-1s7.5-1.9 10.6-3.5c3.1-1.7 5.5-3.9 7.4-6.5s2.8-6.1 2.8-10.2c0-4-.8-7.5-2.4-10.3-1.6-2.8-3.8-5-6.5-6.8-2.8-1.8-6-3-9.7-3.8-3.7-.8-7.7-1.2-11.9-1.2h-16.2v42.4h-.2zm81.5-27.5c0 9.9 2.5 17.2 7.5 21.8s12.4 7 22.4 7c4 0 7.8-.3 11.2-.9 3.5-.6 6.8-1.5 10.1-2.6.6 1.1 1 2.4 1.3 3.9s.5 3 .6 4.2c-3.1 1.3-6.7 2.3-10.8 3-4.1.7-8.6 1-13.5 1-7 0-13-.9-18-2.9-5-1.9-9.2-4.5-12.4-7.9-3.3-3.4-5.6-7.5-7.2-12.1-1.5-4.7-2.3-9.9-2.3-15.5 0-5.4.7-10.6 2.2-15.3 1.4-4.7 3.6-9 6.5-12.5 2.9-3.7 6.6-6.4 11.2-8.5s10-3.1 16.4-3.1c5.3 0 10 .8 14.1 2.5s7.6 3.9 10.4 6.9 4.9 6.5 6.4 10.7c1.4 4.1 2.1 8.6 2.1 13.4 0 .9 0 2-.1 3.4s-.1 2.5-.2 3.5h-57.9m47.8-8c0-3-.4-5.9-1.3-8.9-.8-3-2.2-5.4-4-7.6-1.8-2.2-4.1-3.9-7-5.3-2.8-1.4-6.3-2.1-10.3-2.1-7.4 0-13.2 2.1-17.4 6.2-4.2 4.1-6.6 10.1-7.5 17.6l47.5.1m-487.2-9.9l40.3-51c.8-.1 1.7-.2 2.6-.2.9-.1 1.8-.1 2.6-.1 1.2 0 2.3 0 3.3.1 1.1.1 2.2.1 3.3.2l-39.2 50.1 45.2 54.6c-1.2.1-2.4.2-3.6.2-1.2 0-2.4.1-3.6.1-1 0-1.9 0-2.9-.1-1-.1-2-.1-3-.2l-45-53.7"/><path d="m235.5-431.3c-22.1 0-40 17.7-40 39.5 0 21.8 17.9 39.5 40 39.5s40-17.7 40-39.5c0-21.8-17.9-39.5-40-39.5m20.7 62l-4.1-4.5c4.8-4.2 7.6-10 8-16.3.4-6.3-1.7-12.3-6-17.1s-10.1-7.5-16.5-7.9c-6.4-.4-12.5 1.8-17.3 5.9-4 3.6-6.7 8.3-7.6 13.5l6.1.2-9.9 13-7.9-13.7 5.4.2c1-6.9 4.4-13.2 9.7-17.9 6-5.3 13.7-8 21.7-7.5 8 .5 15.4 3.9 20.7 9.9 5.4 5.9 8.1 13.6 7.7 21.7-.4 8-4 15.3-10 20.5"/><path d="m554.7-376.5l-1.1-1.5 47.7-80.3c2-.7 3.5-.9 5.2-.9 3.3 0 4.1.4 5.5.8l-43.3 73.3h37.7v-31.7c1.9-.3 3.7-.4 5.4-.4s3.5.1 5.3.4v31.7h17c.3 1.7.5 2.5.5 3.9 0 1.6-.2 3.1-.5 4.5h-17v23.2c-.9.2-1.9.3-2.8.3h-5.2c-.9 0-1.8-.1-2.6-.3v-23.2l-51.8.2"/></g></svg>